<?xml version="1.0" encoding="utf-8"?>
<!-- Generator: Adobe Illustrator 22.0.1, SVG Export Plug-In . SVG Version: 6.00 Build 0)  -->
<svg version="1.1" id="Capa_1" xmlns="http://www.w3.org/2000/svg" xmlns:xlink="http://www.w3.org/1999/xlink" x="0px" y="0px"
	 viewBox="0 0 400 75" style="enable-background:new 0 0 400 75;" xml:space="preserve">
<style type="text/css">
	.st0{fill:#828281;}
	.st1{fill:#00ADC1;}
</style>
<g>
	<path class="st0" d="M138.4,29.3v3.1c-0.6,0.1-1.1,0.1-1.6,0.1c-1.3,0-2.2-0.3-2.8-0.8c-0.6-0.5-0.9-1.4-0.9-2.5c0-1.1,0.3-2,1-2.5
		c0.6-0.6,1.6-0.9,2.8-0.9c0.5,0,1,0.1,1.5,0.2v1.2c-0.5-0.1-0.9-0.2-1.4-0.2c-0.5,0-1,0.1-1.3,0.2c-0.3,0.1-0.6,0.4-0.8,0.7
		c-0.2,0.3-0.3,0.8-0.3,1.3c0,0.7,0.2,1.3,0.5,1.6c0.3,0.3,0.9,0.5,1.6,0.5c0.1,0,0.2,0,0.4,0v-2.1H138.4z"/>
	<path class="st0" d="M140.7,32.2c-0.5-0.2-0.8-0.6-1.1-1.1c-0.3-0.5-0.4-1.1-0.4-1.9c0-0.7,0.1-1.4,0.4-1.9
		c0.3-0.5,0.6-0.9,1.1-1.1c0.5-0.2,1-0.4,1.7-0.4c0.6,0,1.2,0.1,1.7,0.4c0.5,0.2,0.8,0.6,1.1,1.1c0.3,0.5,0.4,1.1,0.4,1.9
		c0,0.7-0.1,1.4-0.4,1.9c-0.3,0.5-0.6,0.9-1.1,1.1c-0.5,0.2-1,0.4-1.6,0.4C141.8,32.6,141.2,32.5,140.7,32.2 M143.6,30.9
		c0.3-0.3,0.4-0.9,0.4-1.7c0-0.8-0.1-1.3-0.4-1.7c-0.3-0.4-0.7-0.5-1.2-0.5c-0.5,0-0.9,0.2-1.2,0.5c-0.3,0.3-0.4,0.9-0.4,1.7
		c0,0.8,0.1,1.4,0.4,1.7c0.3,0.4,0.7,0.5,1.2,0.5C142.9,31.4,143.3,31.3,143.6,30.9"/>
	<path class="st0" d="M151.2,29.7c0.2,0.3,0.3,0.6,0.3,1c0,0.4-0.1,0.8-0.3,1.1c-0.2,0.3-0.6,0.5-1,0.6c-0.5,0.1-1.1,0.2-1.9,0.2
		c-0.3,0-0.6,0-0.9,0c-0.3,0-0.6-0.1-0.9-0.1v-6.4c0.3-0.1,0.7-0.1,1-0.2c0.4,0,0.7-0.1,1.1-0.1c1,0,1.7,0.2,2.1,0.5
		c0.4,0.3,0.7,0.8,0.7,1.4c0,0.3-0.1,0.7-0.3,0.9c-0.2,0.3-0.4,0.4-0.8,0.5C150.7,29.2,151,29.4,151.2,29.7 M147.9,27v1.6h0.9
		c0.4,0,0.7-0.1,0.9-0.2c0.2-0.1,0.3-0.4,0.3-0.6c0-0.2,0-0.4-0.1-0.5c-0.1-0.1-0.2-0.2-0.4-0.3c-0.2-0.1-0.4-0.1-0.7-0.1
		C148.5,26.9,148.2,27,147.9,27 M149.6,31.5c0.2-0.1,0.4-0.2,0.5-0.3c0.1-0.1,0.1-0.3,0.1-0.5c0-0.3-0.1-0.6-0.3-0.7
		c-0.2-0.1-0.5-0.2-1-0.2h-1.1v1.8c0.2,0,0.5,0,0.8,0C149.1,31.6,149.4,31.5,149.6,31.5"/>
	<rect x="152.4" y="26" class="st0" width="1.5" height="6.6"/>
	<polygon class="st0" points="156.5,31.4 159.7,31.4 159.7,32.5 155,32.5 155,26 159.7,26 159.7,27.1 156.5,27.1 156.5,28.6 
		159.2,28.6 159.2,29.7 156.5,29.7 	"/>
	<path class="st0" d="M164.5,32.5l-1.7-2.4h-0.1c-0.2,0-0.4,0-0.7,0v2.4h-1.4v-6.4c0.3-0.1,0.7-0.1,1-0.2c0.4,0,0.7-0.1,1.1-0.1
		c1,0,1.7,0.2,2.1,0.5c0.5,0.3,0.7,0.9,0.7,1.6c0,0.5-0.1,0.9-0.3,1.2c-0.2,0.3-0.6,0.6-1,0.7l1.9,2.6H164.5z M162,29
		c0.2,0,0.5,0,0.7,0c0.5,0,0.8-0.1,1.1-0.2c0.2-0.2,0.3-0.4,0.3-0.8c0-0.4-0.1-0.6-0.3-0.8c-0.2-0.2-0.6-0.3-1-0.3
		c-0.3,0-0.5,0-0.8,0.1V29z"/>
	<polygon class="st0" points="171.1,26 172.4,26 172.4,32.5 171,32.5 168.1,28.1 168.1,32.5 166.8,32.5 166.8,26 168.2,26 
		171.1,30.4 	"/>
	<path class="st0" d="M174.9,32.2c-0.5-0.2-0.8-0.6-1.1-1.1c-0.3-0.5-0.4-1.1-0.4-1.9c0-0.7,0.1-1.4,0.4-1.9
		c0.3-0.5,0.6-0.9,1.1-1.1c0.5-0.2,1-0.4,1.7-0.4c0.6,0,1.2,0.1,1.7,0.4c0.5,0.2,0.8,0.6,1.1,1.1c0.3,0.5,0.4,1.1,0.4,1.9
		c0,0.7-0.1,1.4-0.4,1.9c-0.3,0.5-0.6,0.9-1.1,1.1c-0.5,0.2-1,0.4-1.6,0.4C175.9,32.6,175.3,32.5,174.9,32.2 M177.7,30.9
		c0.3-0.3,0.4-0.9,0.4-1.7c0-0.8-0.1-1.3-0.4-1.7c-0.3-0.4-0.7-0.5-1.2-0.5c-0.5,0-0.9,0.2-1.2,0.5c-0.3,0.3-0.4,0.9-0.4,1.7
		c0,0.8,0.1,1.4,0.4,1.7c0.3,0.4,0.7,0.5,1.2,0.5C177,31.4,177.4,31.3,177.7,30.9"/>
	<path class="st0" d="M182.8,32.5v-6.4c0.3-0.1,0.6-0.1,1-0.2c0.4,0,0.7-0.1,1.1-0.1c1.2,0,2.1,0.3,2.7,0.8c0.6,0.6,0.9,1.4,0.9,2.5
		c0,0.8-0.1,1.4-0.4,1.9c-0.3,0.5-0.7,0.9-1.3,1.1c-0.6,0.2-1.3,0.3-2.2,0.3C184,32.6,183.4,32.6,182.8,32.5 M186.1,31.2
		c0.3-0.1,0.5-0.4,0.7-0.7c0.1-0.3,0.2-0.7,0.2-1.3c0-0.5-0.1-0.9-0.2-1.3c-0.1-0.3-0.4-0.6-0.7-0.7c-0.3-0.1-0.7-0.2-1.1-0.2
		c-0.2,0-0.5,0-0.7,0.1v4.3c0.2,0,0.4,0,0.7,0C185.5,31.4,185.9,31.4,186.1,31.2"/>
	<polygon class="st0" points="190.9,31.4 194.2,31.4 194.2,32.5 189.5,32.5 189.5,26 194.1,26 194.1,27.1 190.9,27.1 190.9,28.6 
		193.7,28.6 193.7,29.7 190.9,29.7 	"/>
	<polygon class="st0" points="197.3,32.5 197.3,26 198.8,26 198.8,31.3 201.8,31.3 201.8,32.5 	"/>
	<path class="st0" d="M206.8,32.5l-0.5-1.8h-2.4l-0.5,1.8h-1.4L204,26h2.1l2.1,6.6H206.8z M204.2,29.6h1.7l-0.9-2.8L204.2,29.6z"/>
	<path class="st0" d="M211.2,26.1c0.7-0.1,1.3-0.2,2-0.2c1,0,1.7,0.2,2.2,0.6c0.5,0.4,0.7,1,0.7,1.8c0,0.8-0.2,1.4-0.7,1.8
		c-0.5,0.4-1.2,0.6-2.1,0.6c-0.1,0-0.3,0-0.6,0v1.9h-1.5V26.1z M214.4,29.2c0.2-0.2,0.3-0.5,0.3-1c0-0.5-0.1-0.8-0.3-1
		c-0.2-0.2-0.6-0.3-1.1-0.3c-0.2,0-0.5,0-0.7,0.1v2.5c0.2,0,0.4,0,0.6,0C213.8,29.5,214.1,29.4,214.4,29.2"/>
	<path class="st0" d="M220.9,32.5l-1.7-2.4h-0.1c-0.2,0-0.4,0-0.7,0v2.4H217v-6.4c0.3-0.1,0.7-0.1,1-0.2c0.4,0,0.7-0.1,1.1-0.1
		c1,0,1.7,0.2,2.1,0.5c0.5,0.3,0.7,0.9,0.7,1.6c0,0.5-0.1,0.9-0.3,1.2c-0.2,0.3-0.6,0.6-1,0.7l1.9,2.6H220.9z M218.5,29
		c0.2,0,0.5,0,0.7,0c0.5,0,0.8-0.1,1.1-0.2c0.2-0.2,0.3-0.4,0.3-0.8c0-0.4-0.1-0.6-0.3-0.8c-0.2-0.2-0.6-0.3-1-0.3
		c-0.3,0-0.5,0-0.8,0.1V29z"/>
	<path class="st0" d="M224.1,32.2c-0.5-0.2-0.8-0.6-1.1-1.1c-0.3-0.5-0.4-1.1-0.4-1.9c0-0.7,0.1-1.4,0.4-1.9
		c0.3-0.5,0.6-0.9,1.1-1.1c0.5-0.2,1-0.4,1.7-0.4c0.6,0,1.2,0.1,1.7,0.4c0.5,0.2,0.8,0.6,1.1,1.1c0.3,0.5,0.4,1.1,0.4,1.9
		c0,0.7-0.1,1.4-0.4,1.9c-0.3,0.5-0.6,0.9-1.1,1.1c-0.5,0.2-1,0.4-1.6,0.4C225.1,32.6,224.6,32.5,224.1,32.2 M226.9,30.9
		c0.3-0.3,0.4-0.9,0.4-1.7c0-0.8-0.1-1.3-0.4-1.7c-0.3-0.4-0.7-0.5-1.2-0.5c-0.5,0-0.9,0.2-1.2,0.5s-0.4,0.9-0.4,1.7
		c0,0.8,0.1,1.4,0.4,1.7c0.3,0.4,0.7,0.5,1.2,0.5C226.3,31.4,226.7,31.3,226.9,30.9"/>
	<polygon class="st0" points="234,26 235.4,26 233.3,32.5 231.1,32.5 229,26 230.5,26 232.3,31.4 	"/>
	<rect x="236" y="26" class="st0" width="1.5" height="6.6"/>
	<polygon class="st0" points="243,26 244.3,26 244.3,32.5 242.9,32.5 240,28.1 240,32.5 238.6,32.5 238.6,26 240.1,26 243,30.4 	"/>
	<path class="st0" d="M246.2,31.8c-0.6-0.5-0.9-1.4-0.9-2.5c0-1.1,0.3-2,0.9-2.5c0.6-0.6,1.5-0.9,2.6-0.9c0.5,0,1,0.1,1.4,0.2v1.2
		c-0.4-0.1-0.9-0.2-1.3-0.2c-0.5,0-0.9,0.1-1.2,0.2c-0.3,0.1-0.5,0.4-0.7,0.7c-0.2,0.3-0.2,0.7-0.2,1.3c0,0.5,0.1,1,0.2,1.3
		c0.2,0.3,0.4,0.6,0.7,0.7c0.3,0.1,0.7,0.2,1.2,0.2c0.4,0,0.9-0.1,1.3-0.2v1.2c-0.2,0.1-0.4,0.1-0.7,0.2c-0.3,0-0.5,0.1-0.8,0.1
		C247.6,32.6,246.7,32.3,246.2,31.8"/>
	<rect x="251" y="26" class="st0" width="1.5" height="6.6"/>
	<path class="st0" d="M258.1,32.5l-0.5-1.8h-2.4l-0.5,1.8h-1.4l2.1-6.6h2.1l2.1,6.6H258.1z M255.4,29.6h1.7l-0.9-2.8L255.4,29.6z"/>
	<path class="st0" d="M262.4,32.5v-6.4c0.3-0.1,0.6-0.1,1-0.2c0.4,0,0.7-0.1,1.1-0.1c1.2,0,2.1,0.3,2.7,0.8c0.6,0.6,0.9,1.4,0.9,2.5
		c0,0.8-0.1,1.4-0.4,1.9c-0.3,0.5-0.7,0.9-1.3,1.1c-0.6,0.2-1.3,0.3-2.2,0.3C263.6,32.6,263,32.6,262.4,32.5 M265.7,31.2
		c0.3-0.1,0.5-0.4,0.7-0.7c0.1-0.3,0.2-0.7,0.2-1.3c0-0.5-0.1-0.9-0.2-1.3c-0.1-0.3-0.4-0.6-0.7-0.7c-0.3-0.1-0.7-0.2-1.1-0.2
		c-0.2,0-0.5,0-0.7,0.1v4.3c0.2,0,0.4,0,0.7,0C265,31.4,265.4,31.4,265.7,31.2"/>
	<polygon class="st0" points="270.5,31.4 273.7,31.4 273.7,32.5 269.1,32.5 269.1,26 273.7,26 273.7,27.1 270.5,27.1 270.5,28.6 
		273.2,28.6 273.2,29.7 270.5,29.7 	"/>
	<path class="st1" d="M143.7,44.2c0.5,0.6,0.7,1.3,0.7,2.3c0,0.9-0.2,1.7-0.7,2.3c-0.5,0.6-1.2,1.1-2.3,1.4c-1,0.3-2.4,0.5-4.1,0.5
		c-0.6,0-1.3,0-2-0.1c-0.7-0.1-1.4-0.1-2-0.2v-14c0.7-0.1,1.4-0.3,2.3-0.4c0.8-0.1,1.6-0.1,2.4-0.1c2.1,0,3.7,0.3,4.7,1
		c1,0.7,1.5,1.7,1.5,3c0,0.8-0.2,1.4-0.6,2c-0.4,0.6-1,0.9-1.7,1.1C142.6,43.2,143.2,43.6,143.7,44.2 M136.3,38.4v3.5h2
		c0.9,0,1.6-0.2,2-0.5c0.4-0.3,0.6-0.8,0.6-1.4c0-0.4-0.1-0.8-0.3-1.1c-0.2-0.3-0.5-0.5-0.9-0.6c-0.4-0.1-0.9-0.2-1.6-0.2
		C137.6,38.2,137,38.3,136.3,38.4 M140.1,48.1c0.5-0.1,0.8-0.4,1-0.7c0.2-0.3,0.3-0.7,0.3-1.1c0-0.7-0.2-1.2-0.6-1.5
		c-0.4-0.3-1.1-0.5-2.1-0.5h-2.4v3.9c0.5,0.1,1.1,0.1,1.8,0.1C139,48.3,139.6,48.3,140.1,48.1"/>
	<path class="st1" d="M147.6,49.1c-1-1-1.5-2.6-1.5-4.6v-8.4h3.2v8.7c0,1.1,0.2,2,0.7,2.5c0.5,0.5,1.2,0.8,2.2,0.8
		c1,0,1.7-0.3,2.2-0.8c0.5-0.5,0.7-1.3,0.7-2.5v-8.7h3.1v8.4c0,2.1-0.5,3.6-1.5,4.6c-1,1-2.5,1.5-4.6,1.5
		C150.2,50.7,148.6,50.2,147.6,49.1"/>
	<polygon class="st1" points="163.9,47.9 171,47.9 171,50.5 160.8,50.5 160.8,36.1 170.9,36.1 170.9,38.6 163.9,38.6 163.9,41.9 
		169.9,41.9 169.9,44.4 163.9,44.4 	"/>
	<polygon class="st1" points="182.5,36.1 185.5,36.1 185.5,50.5 182.3,50.5 176,40.8 176,50.5 173,50.5 173,36.1 176.2,36.1 
		182.5,45.7 	"/>
	<path class="st1" d="M190.8,49.8c-1-0.5-1.8-1.4-2.4-2.5c-0.6-1.1-0.8-2.5-0.8-4.1c0-1.6,0.3-3,0.8-4.1c0.6-1.1,1.3-1.9,2.4-2.5
		s2.2-0.8,3.6-0.8c1.4,0,2.6,0.3,3.6,0.8c1,0.5,1.8,1.4,2.4,2.5c0.6,1.1,0.8,2.5,0.8,4.1c0,1.6-0.3,3-0.8,4.1
		c-0.6,1.1-1.3,1.9-2.4,2.5c-1,0.5-2.2,0.8-3.6,0.8C193,50.7,191.8,50.4,190.8,49.8 M197,47c0.6-0.8,0.9-2,0.9-3.6
		c0-1.7-0.3-3-0.9-3.7c-0.6-0.8-1.5-1.2-2.6-1.2c-1.1,0-2,0.4-2.6,1.1c-0.6,0.8-0.9,2-0.9,3.6c0,1.7,0.3,3,0.9,3.7
		c0.6,0.8,1.5,1.2,2.6,1.2C195.5,48.1,196.4,47.7,197,47"/>
	<path class="st1" d="M204.8,50.5c-0.7-0.1-1.3-0.3-1.9-0.5v-2.6c0.6,0.2,1.3,0.3,2,0.5c0.7,0.1,1.4,0.2,2,0.2c0.9,0,1.6-0.1,2-0.4
		c0.4-0.3,0.6-0.7,0.6-1.2c0-0.3-0.1-0.6-0.2-0.8c-0.1-0.2-0.3-0.4-0.6-0.5c-0.3-0.2-0.7-0.3-1.3-0.4l-1.1-0.3
		c-1.3-0.3-2.2-0.8-2.9-1.5c-0.6-0.7-1-1.6-1-2.6c0-1.4,0.5-2.5,1.5-3.2c1-0.8,2.5-1.1,4.5-1.1c0.6,0,1.2,0,1.8,0.1
		c0.6,0.1,1.1,0.2,1.6,0.3v2.6c-0.5-0.1-1-0.3-1.5-0.3c-0.6-0.1-1.1-0.1-1.7-0.1c-1.1,0-1.9,0.1-2.3,0.4c-0.5,0.3-0.7,0.7-0.7,1.2
		c0,0.3,0.1,0.5,0.2,0.7c0.1,0.2,0.3,0.4,0.6,0.5c0.3,0.1,0.6,0.3,1.1,0.4l1.1,0.3c1.4,0.3,2.4,0.9,3.1,1.5c0.7,0.7,1,1.6,1,2.7
		c0,0.9-0.2,1.7-0.7,2.4c-0.5,0.7-1.1,1.2-2,1.5c-0.9,0.4-1.9,0.5-3.1,0.5C206.2,50.7,205.5,50.6,204.8,50.5"/>
	<path class="st1" d="M229.1,50.5l-1.2-3.8h-5.3l-1.2,3.8h-3.1l4.7-14.4h4.6l4.7,14.4H229.1z M223.3,44.1h3.8l-1.9-6.1L223.3,44.1z"
		/>
	<rect x="233.7" y="36.1" class="st1" width="3.2" height="14.4"/>
	<path class="st1" d="M247.9,50.5l-3.7-5.3h-0.2c-0.5,0-1,0-1.5,0v5.3h-3.1V36.4c0.7-0.1,1.4-0.3,2.2-0.4c0.8-0.1,1.5-0.1,2.3-0.1
		c2.1,0,3.6,0.4,4.7,1.1c1,0.8,1.6,1.9,1.6,3.5c0,1-0.2,1.9-0.7,2.6c-0.5,0.7-1.2,1.2-2.1,1.6l4.1,5.8H247.9z M242.6,42.8
		c0.5,0.1,1.1,0.1,1.6,0.1c1.1,0,1.8-0.2,2.3-0.5c0.5-0.4,0.8-0.9,0.8-1.8c0-0.8-0.2-1.4-0.7-1.7c-0.5-0.4-1.2-0.5-2.2-0.5
		c-0.6,0-1.1,0-1.7,0.1V42.8z"/>
	<polygon class="st1" points="256,47.9 263.1,47.9 263.1,50.5 252.9,50.5 252.9,36.1 263,36.1 263,38.6 256,38.6 256,41.9 262,41.9 
		262,44.4 256,44.4 	"/>
	<path class="st1" d="M266.6,50.5c-0.7-0.1-1.3-0.3-1.9-0.5v-2.6c0.6,0.2,1.3,0.3,2,0.5c0.7,0.1,1.4,0.2,2,0.2c0.9,0,1.6-0.1,2-0.4
		c0.4-0.3,0.6-0.7,0.6-1.2c0-0.3-0.1-0.6-0.2-0.8c-0.1-0.2-0.3-0.4-0.6-0.5c-0.3-0.2-0.7-0.3-1.3-0.4l-1.1-0.3
		c-1.3-0.3-2.2-0.8-2.9-1.5c-0.6-0.7-1-1.6-1-2.6c0-1.4,0.5-2.5,1.5-3.2c1-0.8,2.5-1.1,4.5-1.1c0.6,0,1.2,0,1.8,0.1
		c0.6,0.1,1.1,0.2,1.6,0.3v2.6c-0.5-0.1-1-0.3-1.5-0.3c-0.6-0.1-1.1-0.1-1.7-0.1c-1.1,0-1.8,0.1-2.3,0.4c-0.5,0.3-0.7,0.7-0.7,1.2
		c0,0.3,0.1,0.5,0.2,0.7c0.1,0.2,0.3,0.4,0.6,0.5c0.3,0.1,0.6,0.3,1.1,0.4l1.1,0.3c1.4,0.3,2.4,0.9,3.1,1.5c0.7,0.7,1,1.6,1,2.7
		c0,0.9-0.2,1.7-0.7,2.4c-0.5,0.7-1.1,1.2-2,1.5c-0.9,0.4-1.9,0.5-3.1,0.5C268,50.7,267.3,50.6,266.6,50.5"/>
	<rect x="86.5" y="12.7" class="st1" width="0.6" height="2.5"/>
	<rect x="88" y="12.7" class="st1" width="0.6" height="2.5"/>
	<path class="st1" d="M88.2,11.5h-2.8c-0.2,0-0.3,0.2-0.3,0.3v0.5h-1.4c-0.5,0-0.9,0.4-0.9,0.9l-0.1,1.5L82.4,15
		c-0.2,0.2-0.2,0.6-0.2,0.7v1.6c0,0.2,0.2,0.3,0.3,0.3h0.3c0.1,0.5,0.6,0.8,1.1,0.8c0.6,0,1.2-0.5,1.2-1.2c0-0.6-0.5-1.2-1.2-1.2
		c-0.4,0-0.8,0.3-1,0.6v-0.5h0.1c0.2,0,0.3-0.2,0.3-0.3c0-0.2-0.2-0.3-0.3-0.3h-0.1c0,0,0-0.1,0-0.1l0.3-0.3h1.9v2.1
		c0,0.2,0.2,0.3,0.3,0.3h0.4c0.3-0.2,0.7-0.5,1.1-0.7c0,0,0,0,0,0h-1.2v-0.7h2.7c0.8-0.3,1.6-0.5,2.5-0.7h-5.2v-3.4h3.5
		C88.9,12,88.6,11.7,88.2,11.5 M83.8,16.9c0.3,0,0.5,0.2,0.5,0.5c0,0.3-0.2,0.5-0.5,0.5c-0.3,0-0.5-0.2-0.5-0.5
		C83.4,17.1,83.6,16.9,83.8,16.9 M85.1,14.5h-1.7l0.1-1.3l0,0c0-0.1,0.1-0.2,0.2-0.2h1.4V14.5z"/>
	<path class="st1" d="M90,12.7h-0.4l0,2.5h0.6l0-2.3C90.1,12.8,90.1,12.7,90,12.7"/>
	<path class="st1" d="M91.2,13.5l0,1.6l0.6,0l0-1.2C91.6,13.8,91.4,13.7,91.2,13.5"/>
	<path class="st1" d="M74.5,23.2v-2.8l1.7,1.7l0.7-0.3v-8l1.7-0.9c-0.2,0.4-0.3,0.8-0.4,1.2c-0.5,2.2,0.7,4,0.7,4.1l0,0
		c0,0.5,0.2,1,0.6,1.4l0.2,0.3c0.1,0.1,0.3,0.1,0.4,0l0.2-0.2l0.4,0.4c0.1,0.1,0.3,0.1,0.4,0c0.2-0.2,0.6-0.2,0.8,0
		c0.2,0.2,0.2,0.6-0.1,0.8c-0.2,0.2-0.6,0.2-0.8,0c-0.1-0.1-0.3-0.1-0.4,0c-0.1,0.1-0.1,0.3,0,0.4c0.4,0.5,1.2,0.5,1.7,0.1
		c0.5-0.4,0.5-1.2,0.1-1.7c-0.4-0.4-1-0.5-1.4-0.2l-0.2-0.2L81,19c0.1-0.1,0.1-0.3,0-0.4l-0.2-0.3c-0.3-0.3-0.7-0.6-1.1-0.7l0,0
		c-0.1-0.1-2.1-3.5,1.3-6.1l1-0.5l-0.2-0.7l-5,0.1V9.2l-0.4-0.4h-2.3l-0.4,0.4v14.5l0.5-0.3L74.5,23.2z M80.3,18.7L80.3,18.7
		l-0.4,0.4l0,0c-0.2-0.3-0.4-0.6-0.4-0.9C79.8,18.3,80.1,18.5,80.3,18.7 M80,11.1c-0.1,0.1-0.2,0.2-0.3,0.3l-1,0.5l-1.1-0.8L80,11.1
		z M76.8,11.5l1.1,0.8l-1.1,0.6V11.5z M76,20.8l-1.4-1.4l1.4-1.3V20.8z M76,16.4l-1.3-1l1.3-1.1V16.4z M76,10.7v2l-1.4-1.1l1.4-1.3
		V10.7z M74.5,9.6h1.2l-1.2,1.2V9.6z M74.5,12.5l1.3,1.1l-1.3,1.1V12.5z M74.5,16.3l1.3,1l-1.3,1.3V16.3z"/>
	<path class="st1" d="M79.4,33.5c1,0,1.9-0.8,2-1.8v0c0.1-0.5-0.1-1.1-0.4-1.5c-0.3-0.4-0.8-0.7-1.4-0.8c-0.5-0.1-1.1,0.1-1.5,0.4
		c-0.4,0.3-0.7,0.8-0.8,1.4c-0.1,1.1,0.6,2.2,1.8,2.3C79.2,33.5,79.3,33.5,79.4,33.5 M78.8,31.9c-0.1-0.2-0.2-0.4-0.2-0.6
		c0.1-0.4,0.4-0.7,0.8-0.7c0,0,0.1,0,0.1,0c0.2,0,0.4,0.1,0.5,0.3c0.1,0.2,0.2,0.4,0.2,0.6c0,0.2-0.1,0.4-0.3,0.5
		c-0.2,0.1-0.4,0.2-0.6,0.2h0C79.1,32.2,78.9,32.1,78.8,31.9"/>
	<path class="st1" d="M126.1,32.6c-0.1,0.1-0.1,0.2-0.2,0.2c-0.2,0.2-0.6,0.6-0.8,0.8l-0.1,0.1c-0.2,0.2-0.5,0.3-0.7,0.4
		c-0.7,0.3-1.1,0.8-1.3,1.5c-0.1-0.4-0.2-0.7-0.1-1c0.1-0.7,0.4-1.2,0.8-1.8c0.1-0.1,0.2-0.3,0.3-0.4c0.1-0.1,0.1-0.3,0-0.4
		c-0.1-0.1-0.2-0.2-0.4-0.2c-0.8,0.1-1.6,0.4-2.2,0.8c0.1-0.4,0.4-0.8,0.8-1.2l0.1-0.2c0.1-0.1,0.1-0.3,0-0.5
		c-0.1-0.1-0.3-0.2-0.5-0.1c-0.5,0.3-1,0.5-1.5,0.8c-0.4,0.2-0.9,0.4-1.3,0.5c-0.3,0.1-0.6,0.3-0.9,0.5c0.1-0.2,0.2-0.3,0.3-0.4
		c0.2-0.3,0.4-0.5,0.7-0.7c0.1-0.1,0.3-0.2,0.4-0.4c0.5-0.5,1-1.1,1.3-1.7c0.1-0.1,0.1-0.2,0-0.3c0-0.1-0.1-0.2-0.2-0.2
		c-0.4-0.1-0.8-0.2-1.2-0.2c-0.2,0-0.4,0.1-0.5,0.2l0,0c0,0,0,0,0,0c0,0,0-0.1,0-0.1c0.1-0.3,0.2-0.5,0.4-0.6c0,0,0,0,0.1-0.1
		c0.1-0.2,0.1-0.4,0.1-0.4c0-0.1-0.1-0.2-0.4-0.2c0,0-0.1,0-0.1,0c-0.3,0.1-0.6,0.1-0.9,0c-0.6-0.1-1.2-0.1-1.9,0
		c0,0,0.1-0.1,0.1-0.1c0.4-0.4,0.9-0.6,1.5-0.7c0.4-0.1,0.7-0.3,1.1-0.5c0.1-0.1,0.2-0.1,0.3-0.2c0.3-0.1,0.3-0.3,0.3-0.4
		c0-0.1-0.1-0.3-0.3-0.4c-0.3-0.2-0.7-0.2-1-0.2c0.2-0.1,0.3-0.2,0.5-0.4c0.1-0.2,0.3-0.2,0.6-0.3l0,0c0.1,0,0.2-0.2,0.3-0.3
		c0-0.1,0-0.3-0.2-0.4c-0.1,0-0.1-0.1-0.2-0.1c-0.1-0.1-0.2-0.1-0.3-0.2c-0.5-0.3-0.8-0.7-1-1.1c-0.2-0.4-0.5-0.6-0.7-0.7
		c-0.2-0.1-0.5-0.2-0.7-0.2c0.5-0.1,0.9-0.1,1.4,0.1c0.6,0.2,1.2,0.5,1.8,0.9l0,0c0,0,0.2,0.2,0.4,0.1c0.2,0,0.3-0.2,0.3-0.3
		c0.1-0.9-0.2-1.6-0.7-2.2c0.5,0.1,1,0.4,1.5,0.7c0.1,0.1,0.3,0.1,0.5,0c0.1-0.1,0.1-0.3,0.1-0.5c-0.2-0.3-0.2-0.3-0.2-0.4
		c0-0.1-0.1-0.1-0.1-0.3c-0.1-0.1,0-0.3,0-0.5c0-0.1,0-0.2,0-0.3c0-0.3,0.1-0.7,0.3-1.1c-0.2-0.1-0.4-0.3-0.6-0.5
		c-0.2,0.5-0.5,1-0.5,1.5c0,0.1,0,0.2,0,0.2c0,0.2,0,0.4,0,0.6c-0.7-0.3-1.3-0.5-2-0.5c-0.2,0-0.3,0.1-0.3,0.2
		c-0.1,0.1,0,0.3,0.1,0.4c0.6,0.6,1.2,1.1,1.3,1.8c-0.5-0.3-1-0.5-1.5-0.7c-1.2-0.5-2.3-0.1-3.2,0.3c-0.1,0.1-0.2,0.2-0.2,0.3
		c0,0.1,0.1,0.3,0.2,0.3c0.1,0.1,0.3,0.1,0.3,0.1c0.6,0.1,1.1,0.2,1.6,0.4c0.2,0.1,0.3,0.2,0.4,0.3c0.2,0.5,0.6,0.9,1.1,1.3
		c-0.1,0.1-0.3,0.2-0.4,0.4c-0.1,0.2-0.3,0.3-0.6,0.2c-0.3-0.1-0.4,0.1-0.5,0.2c-0.1,0.1-0.1,0.3,0,0.5l0,0c0.3,0.4,0.7,0.7,1.2,0.6
		c-0.2,0.1-0.4,0.2-0.5,0.2c-0.6,0.2-1.3,0.4-1.8,0.9c-0.1,0.1-0.3,0.2-0.5,0.2c0,0,0,0,0,0c-0.4,0-0.5,0.2-0.6,0.3
		c-0.1,0.3,0.1,0.6,0.2,0.7c0.1,0.2,0.3,0.2,0.5,0.3c0.2,0,0.4,0,0.6,0c0.7-0.1,1.3-0.1,1.8,0c0.1,0,0.3,0,0.4,0.1
		c-0.1,0.1-0.1,0.2-0.1,0.3c-0.1,0.3-0.2,0.5-0.4,0.6c-0.3,0.1-0.3,0.3-0.3,0.4c0,0.1,0,0.3,0.2,0.5c0.3,0.3,0.7,0.1,0.9,0
		c0.3-0.1,0.5-0.3,0.7-0.4c0.1,0,0.1-0.1,0.2-0.1l0,0c0,0,0.1-0.1,0.1-0.1c0.1,0,0.3,0,0.4,0c-0.3,0.4-0.6,0.7-0.9,1.1
		c-0.1,0.1-0.2,0.2-0.4,0.3c-0.3,0.2-0.5,0.5-0.8,0.8c-0.4,0.5-0.6,1.1-0.6,1.7c0,0.1,0.1,0.2,0.1,0.3c0.1,0.1,0.2,0.1,0.3,0.1
		c0.2,0,0.3-0.1,0.4-0.2l0.1,0c0.4-0.3,0.8-0.5,1.2-0.7c0.4-0.2,0.9-0.3,1.3-0.6c0,0,0.1,0,0.1-0.1c-0.2,0.4-0.3,0.8-0.2,1.3
		c0,0.1,0.1,0.2,0.2,0.3c0.1,0,0.3,0,0.4,0c0.6-0.4,1.1-0.7,1.7-0.9c-0.3,0.5-0.6,1.1-0.7,1.8c-0.1,0.9,0.4,2.4,0.8,2.8
		c0.1,0.1,0.3,0.1,0.4,0.1c0.1-0.1,0.2-0.2,0.2-0.3c0-0.4,0.1-0.8,0.1-1.1c0.1-0.6,0.3-0.9,0.8-1.1c0.3-0.1,0.7-0.3,1-0.5l0.1-0.1
		c0.1-0.1,0.3-0.3,0.4-0.4c0.1-0.1,0.1-0.1,0.2-0.2C126.3,33.2,126.2,32.9,126.1,32.6"/>
	<rect x="93.4" y="5" class="st1" width="0.8" height="0.8"/>
	<rect x="96.4" y="5" class="st1" width="0.8" height="0.8"/>
	<path class="st1" d="M92.5,4L95,2.2v1.6C95,3.9,95,4,95.1,4l0,0l0,0c0.1,0.1,0.3,0.1,0.4,0L95.6,4v0L98,2.2v1.2v0.3
		c0,0.1,0,0.2,0.1,0.3l0,0l0,0c0.1,0.1,0.3,0.1,0.4,0L98.7,4v0l2.4-1.8V3h0.6V1.6c0-0.1,0-0.2-0.1-0.3l0,0l0,0
		c-0.1-0.1-0.3-0.1-0.4,0l-0.1,0.1v0l-2.4,1.8V1.9V1.6c0-0.1,0-0.2-0.1-0.3l0,0l0,0c-0.1-0.1-0.3-0.1-0.4,0l-0.1,0.1v0l-2.4,1.8V1.9
		V1.6c0-0.1,0-0.2-0.1-0.3l0,0l0,0c-0.1-0.1-0.3-0.1-0.4,0L92,3.6c-0.1,0.1-0.1,0.2-0.1,0.3v3.6c0.2,0.1,0.4,0.3,0.6,0.4V4z"/>
	<path class="st1" d="M89.6,9.6l0.3,0.2l0.4-0.7L90,8.9c-0.4-0.2-0.7-0.4-1.1-0.6l-0.4-0.2l-0.4,0.7L88.6,9
		C88.9,9.2,89.3,9.4,89.6,9.6"/>
	<path class="st1" d="M104.2,15.7l0.4-0.1l-0.2-0.8l-0.4,0.1c-0.4,0.1-0.7,0.1-1.1,0.2l-0.4,0l0.1,0.8l0.4,0
		C103.4,15.8,103.8,15.7,104.2,15.7"/>
	<path class="st1" d="M95.2,13.5l0.5-0.7l-0.9-0.6c0,0-0.2-0.1-0.4-0.3L94,11.7l-0.5,0.7l0.3,0.2c0.2,0.2,0.4,0.3,0.4,0.3L95.2,13.5
		z"/>
	<path class="st1" d="M91.7,11c0.1,0.1,0.3,0.2,0.5,0.4l0.3,0.2L93,11l-0.3-0.2c-0.2-0.2-0.4-0.3-0.5-0.4c-0.1-0.1-0.3-0.2-0.4-0.3
		l-0.3-0.2l-0.5,0.6l0.3,0.2C91.4,10.8,91.5,10.9,91.7,11"/>
	<path class="st1" d="M101.3,15.9l0.1-0.8l-0.4,0c-0.4,0-0.7-0.1-1.1-0.2l-0.4-0.1l-0.2,0.8l0.4,0.1c0.4,0.1,0.8,0.2,1.2,0.2
		L101.3,15.9z"/>
	<path class="st1" d="M98,15.1l0.3-0.7L98,14.2c-0.4-0.2-0.7-0.3-1-0.5l-0.4-0.2l-0.4,0.7l0.4,0.2c0.4,0.2,0.7,0.4,1.1,0.6L98,15.1z
		"/>
	<path class="st1" d="M121.2,26.5c0.6,3.2,3.7,5,3.9,5.2c0.1,0,0.4,0.2,0.9,0.4c-0.3-0.4-0.5-0.9-0.6-1.3c-0.6-0.4-2.9-2-3.3-4.4
		c-0.3-1.6,0.3-3.3,1.6-5.1c0-0.1,0-0.3,0-0.4c0-0.3,0-0.6-0.1-0.9c-0.1,0.1-0.2,0.2-0.2,0.2c0,0,0,0,0,0
		C121.5,22.3,120.8,24.4,121.2,26.5"/>
	<path class="st1" d="M118.4,46.7c0,0-0.1,0-0.2,0c-0.2-0.2-0.8-1.1-1.2-1.8c-0.6-0.9-1.2-1.8-1.7-2.5c0.4-0.3,0.6-0.8,0.5-1.5
		c0,0-0.2-1.6-0.9-1.7c-0.2,0-0.4,0.1-0.5,0.3l0,0c-0.1,0.4-0.3,1-0.7,1.2c-0.1-0.1-0.3-0.1-0.4-0.1c0.3-0.6,0.3-1.2-0.2-1.9
		c0,0,0,0,0,0c-0.1-0.2-0.3-0.2-0.4-0.2c-0.1,0-0.3,0.1-0.4,0.2c0,0.1-0.1,0.2-0.1,0.3c-0.1,0.3-0.2,0.6-1,1c-0.6,0.3-1,0.8-1.1,1.4
		c-0.2-0.1-0.5-0.2-0.7-0.3c-0.4-0.1-0.9,0-1.3,0.3c-0.3,0.2-0.4,0.4-0.4,0.7c0,0.3,0.2,0.6,0.5,0.9c-0.4,0.1-0.7,0.1-1.1,0.2
		c-0.2,0.3-0.4,0.6-0.7,0.9c0.9-0.1,1.8-0.2,2.8-0.5c0.2,0,0.3-0.2,0.3-0.3c0-0.2-0.1-0.3-0.2-0.4c-0.4-0.2-0.8-0.5-0.9-0.7
		c0.1-0.1,0.4-0.3,0.7-0.2c0.4,0.1,0.9,0.4,1.1,0.7l0,0c0.2,0.3,0.5,0.2,0.6,0.2c0,0,0.3-0.2,0.2-0.6c-0.4-1.1,0.3-1.4,0.5-1.5
		c0.5-0.3,0.8-0.5,1-0.8c0,0.6-0.6,1-0.6,1c-0.2,0.1-0.2,0.4-0.1,0.6c0.1,0.2,0.4,0.2,0.6,0.1c0,0,0.4-0.3,0.8-0.1
		c0.2,0.2,0.4,0.1,0.5,0.1c0.5-0.2,0.8-0.7,1-1.1c0.1,0.3,0.1,0.7,0,1c-0.1,0.2-0.2,0.3-0.3,0.3c-0.1,0-0.3,0.1-0.4,0.4
		c0,0.1,0,0.3,0.1,0.4c0.5,0.6,1.3,1.8,2,2.8c0.9,1.4,1.2,1.9,1.5,2c0.1,0.1,0.2,0.1,0.4,0.1c0.1,0,0.1,0,0.2,0
		c0.1,0.3-0.1,0.8-0.2,1.1l0,0c-0.1,0-0.2,0.1-0.2,0.2c-0.2,0.3-0.6,0.7-0.7,0.8c-0.3,0.2-0.6,0.1-1.1-0.1c-0.2-0.1-0.4-0.2-0.6-0.2
		c-0.8-0.2-1.8-0.4-3.1-0.1c-0.6,0.1-1.1,0.3-1.7,0.6c-0.7,0.3-1,1.9-1.2,2.5c0,0.2,0.1,0.4,0.3,0.5c0,0,0.1,0,0.1,0
		c0.2,0,0.4-0.1,0.4-0.3c0.2-0.9,0.5-1.8,0.7-1.9c0.5-0.3,1-0.4,1.5-0.5c1.1-0.2,2-0.1,2.7,0.1c0.1,0,0.3,0.1,0.4,0.2
		c0.5,0.2,1.3,0.6,2,0c0.2-0.2,0.6-0.6,0.7-0.9l0.1,0c0.1,0,0.2-0.1,0.3-0.2c0.1-0.1,0.8-1.4,0.2-2.2
		C118.9,46.8,118.7,46.8,118.4,46.7"/>
	<path class="st1" d="M120,37.7c-1.3,0-2.4,0.5-3.2,1.4c0,0,0,0,0,0l0,0c-0.1,0.1-0.2,0.2-0.2,0.3l0.1,0.4c1,0.1,2,1.2,2.1,1.2
		l0.2,0.2l0.2-0.1c0.2-0.1,0.5,0,0.8,0.1l-1.1,2.1c-0.1,0-0.3,0-0.4,0c-0.1,0-0.2,0-0.3,0c-0.2,0-0.4,0-0.6,0c-0.2,0-0.5,0-0.7,0
		l0.8,1c0.4,0,1.1,0,1.4,0c0,0,0.1,0,0.1,0c0.4,0,0.7,0.1,1.1,0.1c0.9,0.1,1.8,0.3,2.6,0.6c0.2-0.3,0.4-0.6,0.6-0.9
		c-1.2-0.4-2.4-0.7-3.7-0.8l1-1.8c0.2,0.1,0.3,0.3,0.4,0.5l0.1,0.4l0.4-0.1c0.3-0.1,1,0.1,1.6,0.7c0,0,0,0,0,0l0,0
		c0.1,0.1,0.2,0.2,0.3,0.3l0.3,0.1c0.4-0.6,0.6-1.3,0.6-2C124.1,39.4,122.2,37.7,120,37.7 M123.2,42.4c-0.6-0.5-1.3-0.8-1.8-0.8
		c-0.4-0.7-1.6-1.3-2.4-1.2c-0.3-0.2-0.8-0.7-1.5-1.1c0.6-0.6,1.5-0.9,2.4-0.9c1.9,0,3.4,1.4,3.4,3.1
		C123.4,41.9,123.3,42.2,123.2,42.4"/>
	<path class="st1" d="M109.9,48.3c0.3-0.1,0.6-0.1,0.7-0.1c0.2,0,0.4,0,0.5-0.2c0.1-0.1,0.1-0.3,0.1-0.5c-0.1-0.3-0.3-0.5-0.5-0.6
		c-0.2-0.2-0.6-0.3-0.9-0.2c-0.7-0.8-1.6-1.5-2.2-1.6c0,0-0.4-0.1-0.6,0c-0.7,0-1.3,0.3-1.8,0.7c-0.5,0.4-0.9,1-1.1,1.7l0,0
		c-0.1,0.2-0.1,0.5-0.2,0.8c-0.1,0.6,0.1,1.3,0.4,2l0.2,0.4c0.4,0.7,0.9,1.3,1.3,1.7c0.4,0.3,0.7,0.4,0.9,0.4c0.1,0,0.2,0,0.3-0.1
		c0.5-0.2,0.7-0.9,0.6-1.9h0c0-0.2-0.2-1.1-0.2-1.4c-0.1-0.3-0.1-0.5-0.2-0.7c0,0-0.1-1,0.4-1.2c0.5-0.1,0.8,0,1,0.3
		c0,0.1-0.1,0.2-0.1,0.4c-0.1,0.3,0,0.8,0.4,1.2c0.1,0.1,0.3,0.2,0.5,0.1c0.2-0.1,0.3-0.3,0.3-0.4C109.6,48.6,109.7,48.4,109.9,48.3
		 M106.8,52c-0.1,0-0.3,0-0.6-0.2c-0.4-0.3-0.8-0.8-1.1-1.3c0.4-0.4,0.9-0.7,1.7-0.6c0.1,0.3,0.1,0.7,0.1,0.8l0,0
		C107,51.4,106.9,52,106.8,52 M105.3,48.9c0.1-0.1,0.2-0.1,0.2-0.1c0,0,0.2,0,0.3,0c0,0.1,0,0.3,0,0.6c-0.1,0-0.1,0-0.2,0.1
		C105.4,49.2,105.4,49,105.3,48.9 M109,48.3c0-0.3,0.1-0.5,0.1-0.5c0.1-0.1,0.1-0.2,0-0.3c-0.1-0.3-0.4-0.5-0.7-0.7
		c-0.3-0.1-0.7-0.2-1.1,0c-0.3,0.1-0.5,0.3-0.7,0.5c-0.2,0.4-0.3,1.1-0.1,1.9c-0.1,0-0.1,0-0.2,0c0-0.3,0-0.6,0-0.7
		c0-0.2-0.1-0.3-0.3-0.3c-0.3-0.1-0.7,0-0.8,0c0,0-0.4,0.1-0.6,0.4c-0.2,0.3,0,0.7,0.1,0.8c0,0,0.1,0.1,0.1,0.2
		c0,0.1,0.1,0.1,0.1,0.2c-0.1,0.1-0.2,0.1-0.3,0.2c-0.2-0.4-0.3-1-0.3-1.6l0,0c0-0.1,0.1-0.4,0.1-0.5l0-0.1c0,0,0,0,0,0
		c0.2-0.6,0.5-1.1,0.9-1.4c0.4-0.3,0.8-0.5,1.5-0.6c0.8-0.1,2,1,2.4,1.5c0.1,0.1,0.2,0.1,0.3,0.1c0.4,0,0.6,0.1,0.7,0.2c0,0,0,0,0,0
		c-0.2,0-0.5,0-0.8,0.2C109.3,47.8,109.1,48,109,48.3"/>
	<path class="st1" d="M106.3,50.8c-0.1-0.1-0.2-0.1-0.3,0c-0.1,0-0.2,0.1-0.2,0.2c-0.1,0.1-0.1,0.2,0,0.3c0,0.1,0.1,0.2,0.2,0.2
		c0.1,0,0.1,0.1,0.2,0.1c0,0,0.1,0,0.1,0c0.1,0,0.2-0.1,0.2-0.2c0.1-0.1,0.1-0.2,0-0.3C106.4,51,106.4,50.9,106.3,50.8"/>
	<rect x="97.5" y="8.7" class="st1" width="2.2" height="0.8"/>
	<rect x="97.5" y="10.1" class="st1" width="2.2" height="0.8"/>
	<path class="st1" d="M103.7,5.1h-0.8c-0.1,0-0.1,0-0.1,0.1v0.7H102c-0.1,0-0.1,0-0.1,0.1v0.8c0,0.1,0,0.1,0.1,0.1h0.7v0.7
		c0,0.1,0,0.1,0.1,0.1h0.8c0.1,0,0.1,0,0.1-0.1V7h0.7c0.1,0,0.1,0,0.1-0.1V6c0-0.1,0-0.1-0.1-0.1h-0.7V5.2
		C103.8,5.1,103.8,5.1,103.7,5.1"/>
	<path class="st1" d="M104.5,12.2v-1.7h0.5V10h-0.7h-1.9h-0.7v0.5h0.5v2.1c0.2,0,0.3,0,0.5,0v-2.1h1.4v1.8
		C104.1,12.3,104.3,12.3,104.5,12.2"/>
	<path class="st1" d="M100.2,3.8v3.6h-3.6c-0.2,0-0.3,0.2-0.3,0.3v2.9c0.2,0.2,0.5,0.3,0.7,0.4v-3h3.3v4.4c0.2,0.1,0.5,0.1,0.7,0.1
		V4.1h4.7v7.4l0.7-0.5V8.1h3.3v1.4l0.1,0.1c0.1-0.2,0.3-0.3,0.5-0.3V7.7c0-0.2-0.2-0.3-0.3-0.3h-3.6V3.8c0-0.2-0.2-0.3-0.3-0.3h-5.4
		C100.4,3.4,100.2,3.6,100.2,3.8"/>
	<path class="st1" d="M103,36.1l0,2.6c0.1,0,0.3,0,0.4,0.1c0.1,0,0.3,0.1,0.4,0.2l1.2-2.3C104.9,36.6,104.2,35.8,103,36.1"/>
	<path class="st1" d="M102.3,38.8l-0.8-2.5c0,0-1.1-0.1-1.7,1l1.8,1.9C101.8,39,102.1,38.8,102.3,38.8"/>
	<path class="st1" d="M98.5,40.4l2.6,0c0-0.1,0-0.3,0.1-0.4c0-0.1,0.1-0.3,0.1-0.4L99,38.5C99,38.5,98.2,39.2,98.5,40.4"/>
	<path class="st1" d="M99.7,43.5l1.9-1.8c-0.2-0.2-0.3-0.4-0.4-0.7l-2.5,0.8C98.7,41.8,98.6,42.9,99.7,43.5"/>
	<path class="st1" d="M100.9,44.4C100.9,44.4,100.9,44.4,100.9,44.4C100.9,44.4,100.9,44.4,100.9,44.4
		C100.9,44.4,100.9,44.5,100.9,44.4L100.9,44.4C100.9,44.5,100.9,44.5,100.9,44.4C101,44.5,101,44.5,100.9,44.4
		c0.1,0.1,0.1,0.1,0.1,0.1c0,0,0,0,0,0c0,0,0,0,0.1,0c0,0,0,0,0,0c0,0,0,0,0.1,0l0,0c0,0,0,0,0.1,0c0,0,0,0,0,0c0,0,0.1,0,0.1,0l0,0
		c0,0,0.1,0,0.1,0c0,0,0,0,0,0c0,0,0.1,0,0.1,0c0,0,0,0,0,0c0,0,0.1,0,0.1,0c0,0,0,0,0,0c0,0,0.1,0,0.1,0c0,0,0,0,0,0
		c0,0,0.1,0,0.1,0c0,0,0,0,0,0c0,0,0.1,0,0.1,0h0c0,0,0.1,0,0.1,0c0,0,0,0,0,0c0,0,0.1,0,0.1,0c0,0,0,0,0,0c0,0,0.1,0,0.1,0
		c0,0,0,0,0,0c0,0,0.1,0,0.1,0c0,0,0,0,0,0c0,0,0.1,0,0.1,0c0,0,0,0,0,0l0-0.1l0-2.5c-0.1,0-0.3,0-0.4-0.1c-0.1,0-0.3-0.1-0.4-0.1
		l-1,1.9L100.9,44.4C100.9,44.4,100.9,44.4,100.9,44.4C100.9,44.4,100.9,44.4,100.9,44.4"/>
	<path class="st1" d="M105.9,43.7l-1.8-1.9c-0.2,0.2-0.4,0.3-0.7,0.4l0.8,2.5C104.2,44.7,105.3,44.8,105.9,43.7"/>
	<path class="st1" d="M107.3,40.6l-2.6,0c0,0.1,0,0.3-0.1,0.4c0,0.1-0.1,0.3-0.2,0.4l2.3,1.2C106.8,42.5,107.6,41.8,107.3,40.6"/>
	<path class="st1" d="M107.1,39.1c0,0,0.1-1.1-1-1.7l-1.9,1.8c0.2,0.2,0.3,0.4,0.4,0.7L107.1,39.1z"/>
	<path class="st1" d="M104.2,40.5c0-0.7-0.6-1.3-1.3-1.3c-0.7,0-1.3,0.6-1.3,1.3c0,0.7,0.6,1.3,1.3,1.3
		C103.6,41.8,104.2,41.2,104.2,40.5"/>
	<rect x="103" y="26.1" class="st1" width="0.8" height="0.8"/>
	<rect x="103" y="27.4" class="st1" width="0.8" height="0.8"/>
	<rect x="111.6" y="26.1" class="st1" width="0.8" height="0.8"/>
	<rect x="111.6" y="27.4" class="st1" width="0.8" height="0.8"/>
	<rect x="113.4" y="14.3" class="st1" width="0.8" height="0.8"/>
	<rect x="108.6" y="11.8" class="st1" width="0.8" height="0.8"/>
	<path class="st1" d="M82,37.1c2.7,0.6,5.4,2,6.9,3.7l0.9-0.3c-1.5-1.9-4.6-3.6-7.6-4.3c-2.6-0.7-5.9-0.5-8.6,0.7v1
		C76.3,36.5,79.5,36.4,82,37.1"/>
	<path class="st1" d="M83.2,35.5L83.2,35.5c2.8,0.6,6.1,2.7,7.6,4.5l0.9-0.3c0,0,0,0,0,0c-1.4-1.9-4.6-4-7.5-4.9
		c0.2-0.1,0.5-0.3,0.5-0.3c0.1-0.1,0.3-0.2,0.4-0.3c2.8,0.8,6.2,3.3,7.5,5.2c0,0,0,0,0,0l0.9-0.3c0-0.1-0.1-0.1-0.1-0.2
		c-0.3-0.4-0.7-0.9-1.1-1.3c0.2-0.2,0.8-0.5,0.9-0.6c2.1-1.2,7.8-3,10.7-2.2c0.1,0.1,0.1,0.1,0.1,0.1c0.8,0.6,2,1,3.2,1.1
		c0.1,0,0.1,0,0.2,0c0.2,0,0.4,0,0.6,0c0,0.1,1.3-0.2,1.7-0.4c0,0,0.1,0,0.1-0.1c0.5-0.2,1-0.2,1.6-0.1c0.2,0.1,0.5,0.2,0.7,0.4
		c0,0,0.1,0,0.1,0.1c0.1,0.1,0.2,0.2,0.3,0.2c1,0.7,2,1.4,3.2,1.6c0.7,0.1,1.6,0,2.3-0.2c0.1,0,0.3-0.1,0.4-0.1
		c0.4-0.1,0.8-0.4,1.3-0.4c0.7-0.1,1.6-0.2,2.3,0c-0.2-0.3-0.3-0.7-0.4-1.1c-0.6,0,0,0-0.6,0c-0.9-0.1-1.6,0-2.6,0.4
		c0,0-0.2,0.1-0.4,0.1c-0.4,0.1-1.1,0.3-1.6,0.2c0,0-0.1,0-0.1,0c-0.9-0.1-2-0.5-2.8-1.1c-0.1,0-0.1-0.1-0.2-0.1
		c-0.3-0.2-0.6-0.5-0.9-0.7c-0.2-0.1-0.3-0.2-0.5-0.3c-0.9-0.3-1.8-0.3-2.5,0.1c-0.6,0.3-1.3,0.4-2.1,0.3c-1.4,0-3.1-1.2-3.1-1.2
		c-1-0.9-2.3-1.6-3.6-2.1c0,0,0,0,0,0c0,0,0,0,0,0c1.3-0.7,2.7-1.2,4.2-1.5c0.3-0.1,0.5-0.1,0.8-0.1c0.3,0,0.6-0.1,1-0.1
		c0.4,0,1.9,0,1.9,0c0.4,0,0.8,0,1.2,0c2.7,0.2,5.3,1.1,7.2,2.5c0.1-0.3,0.4-0.7,0.6-0.9c-1-0.7-2.3-1.3-3.6-1.8l0-4.6
		c0-0.1,0-0.2-0.1-0.3c-0.1-0.1-0.2-0.1-0.3-0.1l-2.2,0l0-0.2c0-0.1-0.1-0.3-0.2-0.3l-2.8-1.8l0-0.4l2.2,0c0.1,0,0.2,0,0.3-0.1
		c0.1-0.1,0.1-0.2,0.1-0.3l0-1.3c0-0.1,0-0.2-0.1-0.3c-0.1-0.1-0.2-0.1-0.3-0.1h0l-2.6,0c-0.1,0-0.2,0-0.3,0.1
		c-0.1,0.1-0.1,0.2-0.1,0.3l0,2.1l-2.8,1.8c-0.1,0.1-0.2,0.2-0.2,0.3l0,0.2l-2.1,0c-0.1,0-0.2,0-0.3,0.1c-0.1,0.1-0.1,0.2-0.1,0.3
		l0,4.7c0,0-0.1,0-0.1,0.1c-0.2,0.1-0.4,0.2-0.6,0.3c-0.1,0-0.1,0.1-0.2,0.1c-0.3-0.4-0.6-0.8-0.8-1.2c-0.1-0.3-0.3-0.6-0.3-1
		c-0.1-0.3-0.1-0.7-0.1-1c0-0.4,0.1-0.7,0.2-1.1c0,0,0.3-1.1,0.3-1.1c-0.4,0-0.9-0.1-1.3-0.1c0-0.2,0-0.3,0-0.5c0-0.1,0-0.3,0-0.4
		c0-0.1,0-0.1,0-0.2c0,0,0-0.1,0-0.1c0,0,0-0.1,0-0.1c0-0.1,0.1-0.3,0.1-0.4c0-0.1,0-0.1,0.1-0.2c0,0,0,0,0-0.1c0,0,0,0,0-0.1
		c0.1-0.1,0.1-0.2,0.2-0.4c0,0,0-0.1,0.1-0.1c0,0,0,0,0-0.1c0-0.1,0.1-0.1,0.1-0.2c0.1-0.1,0.2-0.2,0.3-0.3c0,0,0.1-0.1,0.1-0.1
		c0,0,0,0,0.1,0c0,0,0,0,0,0c0.1-0.1,0.2-0.1,0.3-0.2c0,0,0.1-0.1,0.1-0.1c0,0,0.1,0,0.1,0c0,0,0.1,0,0.1,0c0.2-0.1,0.4-0.1,0.6-0.2
		c0,0,0.1,0,0.1,0c0,0,0,0,0,0c0,0,0.1,0,0.1,0c0.1,0,0.2,0,0.3,0c0.1,0,0.2,0,0.3,0c0.1,0,0.1,0,0.1,0c0,0,0.1,0,0.1,0c0,0,0,0,0,0
		c0.2,0,0.5,0.1,0.7,0.2c0.1,0,0.1,0,0.2,0.1c0,0,0.1,0,0.1,0c0,0,0,0,0,0c0,0,0,0,0,0c0.1,0,0.1,0.1,0.2,0.1
		c0.1,0.1,0.3,0.1,0.4,0.2c0.8,0.3,1.6,0,2.4-0.2c0.1,0,0.3-0.1,0.4-0.1v-0.8c-0.1,0-0.2,0-0.3,0.1c-0.3,0.1-0.6,0.1-1,0.2
		c-0.1,0-0.2,0-0.3,0.1c0,0-0.1,0-0.1,0c0,0,0,0-0.1,0c-0.1,0-0.1,0-0.2,0c-0.1,0-0.3,0-0.4,0c0,0-0.1,0-0.1,0c0,0,0,0,0,0
		c0,0,0,0,0,0c0,0-0.1,0-0.1,0c0,0-0.1,0-0.1,0c0,0,0,0,0,0c-0.1,0-0.1-0.1-0.2-0.1c-0.2-0.1-0.4-0.2-0.5-0.3
		c-0.5-0.2-1-0.3-1.5-0.3c-1,0-2,0.4-2.8,1.1c-0.5,0.5-0.9,1.1-1,1.7C98,23.5,98,24.1,98,24.7c-0.3,0-0.7,0-1.1,0
		c0-0.9,0.1-1.7,0.4-2.6c0.1-0.2,0.1-0.4,0.3-0.6c0.1-0.1,0.1-0.2,0.2-0.3c0,0,0.1-0.1,0.1-0.1c0,0,0,0,0.1-0.1c0,0,0,0,0,0
		c0.1-0.2,0.3-0.3,0.4-0.5c0,0,0.1-0.1,0.1-0.1c0,0,0,0,0.1,0c0,0-0.1,0,0,0c0.1-0.1,0.2-0.1,0.3-0.2c0.2-0.1,0.4-0.2,0.6-0.3
		c0,0,0.1,0,0.1-0.1c0,0,0.1,0,0.1,0c0.1,0,0.2-0.1,0.3-0.1c0.4-0.1,0.8-0.2,1.3-0.3c0.5-0.1,0.9-0.2,1.3-0.5
		c0.3-0.3,0.6-0.7,0.9-0.9c0.1-0.1,0.1-0.1,0.2-0.2c0.1-0.1,0.2-0.1,0.3-0.2c0.1-0.1,0.2-0.1,0.3-0.2c0,0,0,0,0.1,0c0,0,0,0,0,0
		c0,0,0,0,0,0c0.1,0,0.1-0.1,0.2-0.1c0.4-0.1,0.8-0.3,1.2-0.4l0.1,0c0.7-0.1,1.4-0.2,2.2-0.2c1.5,0.1,3.1,0.4,4.5,0.8
		c1.3,0.3,2.7,0.6,4.1,0.7c0.1,0,0.3,0,0.4,0c1.4,0,3-0.6,4-1.5c-0.2-0.2-0.4-0.3-0.6-0.5c-0.9,0.7-2.2,1.2-3.3,1.2v-2.7
		c0-0.1,0-0.2-0.1-0.3l-0.6-0.4v-1.5c0-0.2-0.1-0.3-0.3-0.3h-1c-0.2,0-0.3,0.1-0.3,0.3v0.4l-0.9-0.6c-0.1-0.1-0.3-0.1-0.4,0
		l-1.2,0.9v-0.8c0-0.1,0-0.2-0.1-0.3l-0.6-0.4v-1.5c0-0.2-0.1-0.3-0.3-0.3h-1c-0.2,0-0.3,0.1-0.3,0.3v0.4l-0.9-0.6
		c-0.1-0.1-0.3-0.1-0.4,0l-3.1,2.2c-0.1,0-0.1,0.1-0.1,0.2c-2.3,0.8-4.2,1-5.9,0.5c-2.1-0.6-4-1.9-5.6-3.2l-0.1-0.1
		c-1.5-1.2-2.9-2.3-4.6-3.1c-0.2,0.2-0.4,0.4-0.7,0.6l0,0c1.7,0.8,3.2,1.9,4.7,3c1.8,1.4,3.7,2.8,6,3.5c1.8,0.6,3.9,0.4,6.2-0.4v2.2
		l0.6-0.2v-2.6l2.8-2l1.2,0.8c0.1,0.1,0.2,0.1,0.3,0c0.1-0.1,0.2-0.2,0.2-0.3v-0.7h0.3v1.4c0,0.1,0,0.2,0.1,0.3l0.6,0.4v1.1
		l-1.2,0.9c-0.1,0.1-0.1,0.2-0.1,0.3v1.5c-1.5-0.3-3.1-0.4-4.6-0.1c0,0-0.1,0-0.1,0c-0.5,0.1-1.1,0.3-1.6,0.5
		c-2.3,0.7-4.7,0.4-6.8-0.6c-2.3-1-4.1-2.7-6.1-4.2c-2.2-1.6-4.7-3.1-7.5-3.2c-1.9-0.1-3.9,0.1-5.8,0.1v0.8c1.8,0,3.6-0.1,5.4-0.1
		c1.1,0,2.1,0.1,3.1,0.5c1.6,0.6,3.1,1.6,4.5,2.6c1.6,1.1,3.1,2.5,4.8,3.5c-1.2-0.1-2.5-0.1-3.7,0.1c-1.6,0.2-3.3,0.6-4.7,1.4
		c-0.8,0.4-1.5,1-2.1,1.6l0.6,0.6c0.1-0.1,0.3-0.3,0.4-0.4c0.1-0.1,0.1-0.1,0.2-0.2c0,0,0.1-0.1,0.1-0.1c0,0,0,0,0,0
		c0,0,0.1,0,0.1,0c0.3-0.2,0.6-0.4,0.9-0.6c0.3-0.2,0.7-0.4,1-0.5c0,0,0.1,0,0.1-0.1c0,0,0.1,0,0.1,0c0.1,0,0.2-0.1,0.3-0.1
		c0.2-0.1,0.4-0.1,0.5-0.2c1.6-0.5,3.3-0.7,5-0.7c1,0,2,0.1,3.1,0.2c0,0,0,0,0.1,0c1.6,0.6,3.3,0.9,4.9,0.8
		c-0.1,0.1-0.2,0.2-0.3,0.3c-0.1,0.1-0.2,0.2-0.2,0.2c0,0,0,0,0,0c0,0,0,0-0.1,0c-0.1,0-0.1,0.1-0.2,0.1c0,0,0,0,0,0c0,0,0,0,0,0
		c-0.1,0-0.1,0-0.2,0.1c-0.1,0-0.2,0.1-0.3,0.1c-0.4,0.1-0.9,0.1-1.3,0.3c-0.4,0.1-0.9,0.3-1.3,0.5c-0.8,0.5-1.5,1.2-1.9,2.1
		c-0.4,1-0.5,2.1-0.6,3.1c-0.2,0-0.3,0-0.3,0c-0.3,0-0.6,0.1-0.9,0.1c0,0,0.3,1.1,0.3,1.1c0.1,0.3,0.1,0.6,0.1,1
		c0,0.7-0.2,1.3-0.5,1.9c-0.2,0.3-0.4,0.7-0.7,1c-0.1,0.2-0.3,0.3-0.5,0.5c-0.1,0-0.1,0-0.2,0c-0.1,0-0.2,0-0.3,0
		c-0.2,0-0.5,0-0.7,0c-0.2,0-0.3,0-0.5,0c-0.2,0-0.3,0-0.5,0.1v-1.7h0.9c0.1,0,0.6-0.1,0.8-0.2c0.1-0.1,0.3-0.3,0.3-0.3
		c0.4-0.4,0.6-0.9,0.6-1.4c0-0.2-0.1-0.3-0.3-0.3h-1.1c-0.4,0-0.9,0.1-1.2,0.4v-0.7c0.3,0.1,0.6,0.1,0.9-0.1
		c0.3-0.1,0.5-0.4,0.6-0.7c0.4,0.1,0.8,0,1.1-0.3c0.3-0.3,0.4-0.7,0.3-1.1c0.4-0.1,0.7-0.4,0.8-0.8c0.1-0.4,0-0.8-0.3-1.1
		c0.3-0.3,0.4-0.7,0.3-1.1c-0.1-0.4-0.4-0.7-0.8-0.8c0.1-0.4,0-0.8-0.3-1.1c-0.3-0.3-0.7-0.4-1.1-0.3c-0.1-0.4-0.4-0.7-0.8-0.8
		c-0.4-0.1-0.8,0-1.1,0.3c-0.3-0.3-0.7-0.4-1.1-0.3c-0.4,0.1-0.7,0.4-0.8,0.8c-0.4-0.1-0.8,0-1.1,0.3c-0.3,0.3-0.4,0.7-0.3,1.1
		c-0.4,0.1-0.7,0.4-0.8,0.8c-0.1,0.4,0,0.8,0.3,1.1c-0.3,0.3-0.4,0.7-0.3,1.1c0.1,0.4,0.4,0.7,0.8,0.8c-0.1,0.4,0,0.8,0.3,1.1
		c0.3,0.3,0.7,0.4,1.1,0.3c0.1,0.3,0.3,0.6,0.6,0.7c0.3,0.1,0.6,0.1,0.9,0V27c-0.3-0.3-0.8-0.4-1.2-0.4h-1.1c-0.2,0-0.3,0.1-0.3,0.3
		c0,0.5,0.2,1,0.6,1.4c0,0,0.3,0.4,0.7,0.5c0.3,0.1,1,0,1.3,0v1.8c-1.6,0.3-3.2,0.8-4.5,1.6c0-0.1,0-0.1,0-0.1l0,0c0,0,0-0.1,0-0.3
		c0.2-0.1,0.3-0.1,0.5-0.2c0.4-0.2,0.9-0.4,1-0.4c0.2-0.1,0.4-0.2,0.5-0.4l0,0c0.1-0.2,0.1-0.4,0.1-0.6l0,0c0,0,0-0.1,0-0.2l0,0
		c0,0,0-0.1,0-0.1c0-0.1,0-0.2-0.1-0.3c0-0.1-0.1-0.2-0.1-0.3c0,0,0-0.1,0-0.1l-0.1-0.2l0,0c-0.1-0.2-0.2-0.3-0.3-0.4
		c0,0-0.1-0.1-0.1-0.1l0,0c0,0-0.1,0-0.1,0c0,0,0,0,0,0C87.2,28,87,28,86.9,28.1c-0.2,0-0.6,0.1-1.1,0.1c-0.2,0-0.3,0.1-0.5,0.1
		c0-0.1-0.1-0.1-0.1-0.1c0,0-0.1-0.1-0.1-0.1c0,0,0,0,0,0l0,0c0,0-0.1-0.1-0.2-0.2c0.1-0.1,0.2-0.3,0.3-0.4c0.3-0.4,0.5-0.8,0.6-0.9
		c0.1-0.2,0.2-0.4,0.2-0.6l0,0c0-0.2-0.1-0.4-0.3-0.6l0,0c0,0-0.1-0.1-0.1-0.1l0,0c0,0-0.1,0-0.1-0.1c-0.1-0.1-0.2-0.2-0.3-0.2
		l-0.5-0.4l0,0c-0.2-0.1-0.5-0.2-0.8-0.2c-0.2,0-0.4,0.1-0.5,0.3c-0.1,0.1-0.5,0.4-0.8,0.8c-0.1,0.1-0.2,0.2-0.4,0.4
		c-0.1,0-0.1,0-0.2-0.1c-0.1,0-0.1,0-0.1-0.1l-0.2-0.1c0,0-0.1,0-0.1,0l-0.1,0c0-0.2,0-0.3,0-0.5c0-0.2,0-0.5-0.1-0.8l0-0.3
		c0-0.2,0-0.4-0.2-0.5c-0.1-0.2-0.4-0.4-0.7-0.4c-0.1,0-0.2,0-0.3,0l-0.1,0c-0.1,0-0.3,0-0.4,0c-0.2,0-0.4,0-0.5,0l-0.2,0
		c-0.3,0-0.5,0.1-0.7,0.3c-0.1,0.1-0.2,0.3-0.2,0.5c0,0.1,0,0.2-0.1,0.3c0,0.2-0.1,0.5-0.1,0.8c0,0.2,0,0.4-0.1,0.5c0,0,0,0,0,0
		c0,0-0.1,0-0.1,0l-0.2,0c-0.1,0-0.1,0-0.2,0.1c0,0-0.1,0-0.1,0c-0.1-0.1-0.2-0.3-0.3-0.4c-0.3-0.4-0.6-0.7-0.7-0.8
		c-0.1-0.2-0.3-0.3-0.5-0.3c-0.3-0.1-0.5,0-0.8,0.1l-0.6,0.3l-0.6,0.4c-0.1,0-0.1,0.1-0.2,0.2V26c0.1,0.2,0.2,0.5,0.4,0.8
		c0.1,0.1,0.2,0.3,0.2,0.5c0,0-0.1,0.1-0.1,0.1c-0.1,0.1-0.1,0.1-0.1,0.2l0,0l-0.1,0.1c0,0,0,0-0.1,0.1l0,0c0,0,0,0,0,0
		c-0.1,0-0.1,0-0.2-0.1v1.2c0.1,0,0.2,0.1,0.2,0.1l0.4,0.1l0.3-0.5c0-0.1,0.1-0.1,0.2-0.2c0,0,0.1-0.1,0.1-0.1l0.1-0.1c0,0,0,0,0,0
		c0,0,0,0,0-0.1l0,0c0.1-0.1,0.2-0.2,0.3-0.3l0.4-0.4l-0.2-0.3l0-0.1c0,0,0,0,0-0.1c-0.1-0.2-0.2-0.4-0.4-0.6
		c-0.2-0.3-0.3-0.7-0.4-0.9l0.4-0.3l0.4-0.3c0.1,0.1,0.4,0.4,0.6,0.7c0.2,0.2,0.4,0.5,0.4,0.6l0,0c0,0,0,0.1,0.1,0.1l0.2,0.4
		l0.4-0.1c0,0,0,0,0.1,0l0,0c0.2-0.1,0.3-0.1,0.4-0.1l0,0c0,0,0.1,0,0.1,0l0.2,0c0,0,0.1,0,0.1,0l0,0c0.1,0,0.2,0,0.3-0.1l0.5-0.1
		l0-0.5c0-0.1,0-0.4,0.1-0.9c0-0.2,0.1-0.5,0.1-0.7c0-0.1,0-0.2,0-0.2l0.1,0c0.1,0,0.3,0,0.4,0c0.1,0,0.3,0,0.4,0l0,0c0,0,0,0,0.1,0
		l0,0.2c0,0.3,0,0.5,0.1,0.7c0,0.4,0,0.7,0,0.9l0,0.4l0.6,0.2c0,0,0.1,0,0.1,0l0.1,0c0,0,0.1,0,0.1,0l0.2,0.1c0,0,0.1,0,0.2,0.1
		c0,0,0.1,0.1,0.2,0.1c0.1,0,0.1,0.1,0.2,0.1c0,0,0,0,0.1,0l0.4,0.2l0.3-0.4c0,0,0.1-0.1,0.1-0.1c0.1-0.2,0.3-0.4,0.5-0.5
		c0.3-0.3,0.6-0.5,0.7-0.7l0.4,0.3c0.1,0,0.1,0.1,0.2,0.2c0,0,0.1,0.1,0.1,0.1c0,0,0,0,0.1,0.1c-0.1,0.2-0.3,0.5-0.5,0.8
		c-0.2,0.3-0.4,0.5-0.5,0.7l-0.3,0.4l0.3,0.3c0,0,0,0,0,0l0,0c0.1,0.2,0.2,0.3,0.3,0.4l0,0c0,0,0,0,0,0c0,0,0,0,0,0l0,0c0,0,0,0,0,0
		c0,0.1,0.1,0.2,0.2,0.4c0,0,0,0,0,0.1c0,0,0,0,0,0c0,0,0,0,0,0l0.2,0.4l0.4-0.1c0.2,0,0.5-0.1,0.9-0.2c0.4-0.1,0.8-0.1,1-0.1
		c0,0,0,0,0,0.1l0.1,0.4c0,0.2,0.1,0.3,0.1,0.4c0,0,0,0,0,0.1c-0.2,0.1-0.5,0.2-0.9,0.4c-0.3,0.1-0.6,0.2-0.8,0.3l-0.4,0.1l0,0.4
		c0,0,0,0,0,0.1l0,0c0,0.2,0,0.4,0,0.5h0c0,0,0,0.2-0.1,0.6l0,0c0,0,0,0,0,0.1l0,0.3c-0.3,0.2-0.6,0.4-0.9,0.7c0,0-0.8,0.5-1.7,0.8
		c-2.3-0.4-5.4-0.4-8,0.4l0.1,0c-0.1-0.1-0.1-0.2-0.2-0.4l0,0c0,0,0-0.1,0-0.1L74.1,34l-0.4,0.1v2.2C76.5,34.8,80.7,34.9,83.2,35.5
		 M112.9,25.4l0,3.9c-0.6-0.2-1.2-0.3-1.7-0.4l0-3.5L112.9,25.4z M108,28.7c-0.3,0-0.7,0-1,0l0-1.3c0-0.4,0.3-0.7,0.7-0.7
		c0.4,0,0.7,0.3,0.7,0.7l0,1.3C108.3,28.7,108.2,28.7,108,28.7 M109.8,20.5l0,0.5l-1.7,0l0-0.5L109.8,20.5z M107.7,22.9l2.6,1.6
		l0,4.2c-0.2,0-0.5,0-0.7-0.1c-0.2,0-0.4,0-0.6,0l0-1.3c0-0.7-0.6-1.2-1.2-1.2c-0.7,0-1.2,0.6-1.2,1.2l0,1.3c0,0-0.1,0-0.1,0
		c-0.4,0-0.8,0.1-1.2,0.1l0-4.2L107.7,22.9z M104.3,25.4l0,3.6c0,0-0.1,0-0.1,0c-0.6,0.1-1.1,0.3-1.6,0.4l0-4L104.3,25.4z
		 M111.1,14.9l2.8-2l1.2,0.8c0.1,0.1,0.2,0.1,0.3,0c0.1-0.1,0.2-0.2,0.2-0.3v-0.7h0.3v1.4c0,0.1,0,0.2,0.1,0.3l0.6,0.4v2.5
		c-1.3-0.1-2.6-0.4-3.8-0.7c-0.5-0.1-1.1-0.3-1.7-0.4V14.9z M89.9,35.7c-0.3-0.2-0.6-0.4-1-0.6c0.2-0.2,0.4-0.3,0.6-0.5
		c1.9-1.3,5.7-2.5,8.3-2.8c0.1,0,0.2,0,0.3,0.1c0.4,0.1,0.8,0.2,1.2,0.3c0,0,0.1,0,0.1,0c-2.9,0.3-6.7,1.6-8.7,2.9
		c-0.2,0.1-0.4,0.3-0.6,0.4C90.1,35.5,90,35.6,89.9,35.7 M101.3,32.9c0.4,0.2,0.8,0.5,1.2,0.7c-2.9-0.1-7.7,1.2-10,2.6
		c-0.2,0.1-0.4,0.3-0.6,0.4c0,0-0.2,0.2-0.4,0.3c-0.3-0.2-0.5-0.5-0.8-0.7c0,0,0,0,0,0c0.2-0.2,0.4-0.3,0.7-0.5
		C93.5,34.4,98.5,32.8,101.3,32.9 M95.3,29.9c0.2-0.3,0.4-0.6,0.5-1c0.3-0.6,0.4-1.3,0.4-1.9c0-0.4,0-0.8-0.1-1.2
		c0.7-0.1,1.4-0.1,2.1-0.1c0.2,0,0.3,0,0.5,0c-0.1,0.4-0.2,0.8-0.2,1.2c0,0.5,0.1,1.1,0.2,1.6c0.1,0.3,0.2,0.6,0.4,1
		c0,0.1,0.1,0.1,0.1,0.2c0.2,0.3,0.4,0.7,0.6,1c-0.2,0.1-0.4,0.2-0.6,0.4c0,0,0,0-0.1,0c-0.1,0-0.2-0.1-0.4-0.1
		c-0.6-0.2-1.2-0.3-1.9-0.4c-0.4-0.1-0.8-0.1-1.2-0.1c-0.2,0-0.5,0-0.7,0C95.1,30.2,95.2,30,95.3,29.9 M92.7,27.2h0.7
		c-0.1,0.6-0.7,1-1.3,1h-0.7V28C91.7,27.6,92.2,27.2,92.7,27.2 M92.3,25.4c0,0.1-0.1,0.2-0.3,0.2l0,0c-0.1,0-0.3,0-0.4-0.1
		c-0.1-0.1-0.2-0.2-0.2-0.3v-0.7c0.1,0,0.3-0.1,0.4-0.1l0.3,0.6C92.3,25.2,92.3,25.3,92.3,25.4 M93.6,24.8L93.6,24.8
		c-0.1,0.1-0.2,0.1-0.4,0.1c-0.1,0-0.2-0.1-0.3-0.2l-0.3-0.6c0.1-0.1,0.2-0.2,0.3-0.3l0.6,0.3c0.1,0.1,0.2,0.2,0.2,0.3
		C93.7,24.5,93.7,24.7,93.6,24.8 M94.5,23.2L94.5,23.2c0,0.1-0.1,0.2-0.2,0.3c-0.1,0-0.2,0-0.4,0l-0.6-0.3c0.1-0.1,0.1-0.3,0.1-0.4
		h0.7c0.1,0,0.2,0.1,0.3,0.2C94.5,22.9,94.5,23.1,94.5,23.2 M93.8,21.2L93.8,21.2c0.1-0.1,0.3-0.1,0.4,0c0.1,0,0.2,0.1,0.2,0.3l0,0
		c0,0.1,0,0.3-0.1,0.4c-0.1,0.1-0.2,0.2-0.3,0.2h-0.7c0-0.1-0.1-0.3-0.1-0.4L93.8,21.2L93.8,21.2z M92.9,19.9
		c0.1-0.1,0.2-0.2,0.3-0.2c0.1,0,0.3,0,0.3,0.1l0,0c0.1,0.1,0.1,0.2,0.1,0.3c0,0.1-0.1,0.2-0.2,0.3l-0.6,0.3
		c-0.1-0.1-0.2-0.2-0.3-0.3L92.9,19.9z M91.5,19.4c0-0.1,0.1-0.2,0.2-0.3c0.1-0.1,0.2-0.1,0.4-0.1l0,0c0.1,0,0.2,0.1,0.3,0.2
		c0,0.1,0,0.3,0,0.4l-0.3,0.6c-0.1-0.1-0.3-0.1-0.4-0.1V19.4z M89.9,19.2c0-0.1,0.1-0.2,0.3-0.2l0,0c0.1,0,0.3,0,0.4,0.1
		c0.1,0.1,0.2,0.2,0.2,0.3v0.7c-0.1,0-0.3,0.1-0.4,0.1L90,19.6C89.9,19.5,89.9,19.3,89.9,19.2 M88.7,19.9L88.7,19.9
		c0.1-0.1,0.2-0.1,0.4-0.1c0.1,0,0.2,0.1,0.3,0.2l0.3,0.6c-0.1,0.1-0.2,0.2-0.3,0.3l-0.6-0.3c-0.1-0.1-0.2-0.2-0.2-0.3
		C88.5,20.1,88.6,20,88.7,19.9 M87.8,21.4L87.8,21.4c0-0.1,0.1-0.2,0.2-0.3c0.1,0,0.3,0,0.4,0l0.6,0.3c-0.1,0.1-0.1,0.3-0.1,0.4
		h-0.7c-0.1,0-0.2-0.1-0.3-0.2C87.8,21.7,87.7,21.5,87.8,21.4 M88.4,23.5c-0.1,0.1-0.2,0.1-0.4,0c-0.1,0-0.2-0.1-0.2-0.3l0,0
		c0-0.1,0-0.3,0.1-0.4c0.1-0.1,0.2-0.2,0.3-0.2h0.7c0,0.1,0.1,0.3,0.1,0.4L88.4,23.5L88.4,23.5z M89.3,24.7
		c-0.1,0.1-0.2,0.2-0.3,0.2c-0.1,0-0.3,0-0.3-0.1l0,0c-0.1-0.1-0.1-0.2-0.1-0.3c0-0.1,0.1-0.2,0.2-0.3l0.6-0.3
		c0.1,0.1,0.2,0.2,0.3,0.3L89.3,24.7z M89.6,22.3c0-0.9,0.7-1.5,1.5-1.5c0.9,0,1.5,0.7,1.5,1.5c0,0.9-0.7,1.5-1.5,1.5
		C90.3,23.9,89.6,23.2,89.6,22.3 M90.6,25.6c-0.1,0.1-0.2,0.1-0.4,0.1l0,0c-0.1,0-0.2-0.1-0.3-0.2c-0.1-0.1,0-0.3,0-0.4l0.3-0.6
		c0.1,0.1,0.3,0.1,0.4,0.1v0.7C90.7,25.4,90.7,25.5,90.6,25.6 M90,28.2c-0.6,0-1.1-0.4-1.3-1h0.7c0.6,0,1.1,0.4,1.2,0.9v0.1H90z
		 M87.1,32.9c1.3-0.7,2.8-1.1,4.4-1.3c0.4-0.1,0.7-0.1,1.1-0.1c0,0,0.1,0,0.1,0c0.3,0,1,0,1.4,0c0.2,0,0.4,0,0.4,0
		c0.2,0,0.4,0,0.5,0C92.7,32,90.3,33,88.9,34c-0.2,0.2-0.4,0.3-0.6,0.5c0,0-0.1,0.1-0.1,0.1c-0.7-0.4-1.5-0.8-2.2-1
		C86.3,33.3,86.7,33.1,87.1,32.9"/>
	<path class="st1" d="M82.2,70.3l-0.4,0.6c-0.4-0.1-0.9-0.4-1.2-0.6l0.6-0.8l0.4-0.5c-0.1,0-0.4-0.3-0.5-0.4
		c-1.3-1.1-3.9-2.6-5.9-2.8c0,0,0,0,0,0c-0.2,0-1.2-0.1-1.4-0.1l0,1.1l0,0.4v0.7l0-0.1c0.3,0,0.6,0.1,0.9,0.1c2,0.4,3.8,1.3,5,2.6
		c0,0,0.2,0.2,0.2,0.2c0.4,0.4,1.1,0.7,1.8,0.9c-0.2,0.8-0.4,1.1-0.8,1.5c-0.1-0.2-0.3-0.3-0.5-0.4c-0.5-0.3-1.1-0.5-1.6-0.4
		c0,0-0.9,0-1.4-0.2c-0.6-0.2-1.1-0.7-1.5-1.2c-0.3-0.3-0.4-0.7-0.8-1c-0.4-0.3-0.9-0.5-1.3-0.5v0.6c0.3,0,0.6,0.1,0.9,0.3
		c0.2,0.1,0.7,0.9,1,1.2c0,0,0.8,0.8,1.3,1c0.6,0.2,1.7,0.5,2,0.4c0,0,0,0,0,0v0c0,0,0.1,0,0.1,0v0c0.4,0,0.7,0,1.1,0.2
		c0.1,0,0.2,0.2,0.4,0.4c0,0,0,0,0,0l0.3,0.5c0,0,0.1,0,0.1-0.1c0,0,0,0,0,0l0,0c0,0,0.1-0.1,0.1-0.1c0.1-0.1,0.3-0.2,0.4-0.3
		c0,0,0,0-0.1-0.1c0.5-0.5,0.9-1.2,1-1.8c0,0,0-0.2,0-0.2c0-0.1,0.1-0.4,0.1-0.4c-0.1,0-0.2,0-0.3,0l0.3-0.4l0.3-0.3l0.3-0.4
		l-1.5-0.3L82.2,70.3z M74.8,67.2c-0.2,0-0.5-0.1-0.7-0.1l0.6-0.8c0.1,0,0.2,0,0.3,0c0.3,0,0.6,0.1,0.8,0.2l-0.7,0.8
		C75.1,67.3,75,67.3,74.8,67.2 M75.8,67.5l0.7-0.8c0.5,0.2,0.9,0.4,1.4,0.6L77.3,68C76.8,67.8,76.3,67.6,75.8,67.5 M77.7,68.3
		l0.6-0.8c0.3,0.2,0.6,0.4,0.9,0.5l-0.6,0.8C78.4,68.6,78.1,68.5,77.7,68.3 M79.1,69.1l0.6-0.8c0.4,0.2,0.7,0.5,0.9,0.7L80,69.9
		C79.7,69.6,79.4,69.4,79.1,69.1"/>
	<path class="st1" d="M80.2,61.1c1.5,0.2,2.7,1,3.3,1.6l0.4-0.8c-0.7-0.6-1.6-1.4-3.3-1.6L80.2,61.1z"/>
	<path class="st1" d="M78.4,64.3c1.5,0.2,2.7,1.1,3.3,1.6l0.4-0.8c-0.7-0.6-1.6-1.4-3.3-1.6L78.4,64.3z"/>
	<path class="st1" d="M79.3,62.7c1.5,0.2,2.7,1.1,3.3,1.6l0.4-0.8c-0.7-0.6-1.6-1.4-3.3-1.6L79.3,62.7z"/>
	<path class="st1" d="M77.9,60.9c-0.4-0.3-1.1-0.8-2-1.2c0,0,0,0,0,0c0.1-0.1,0.3-0.4,0.2-0.5c-0.1-0.1-0.3,0-0.5,0.1
		c0-0.2-0.1-0.4-0.2-0.4c-0.1,0-0.3,0.4-0.3,0.5c0,0,0,0,0,0c-0.5-0.2-1-0.3-1.4-0.3l0,0.5V60c1.5,0.2,3.2,1.1,3.8,1.6L77.9,60.9z"
		/>
	<path class="st1" d="M73.7,62c0,0,0.1,0,0.1,0c1.2,0.4,2.2,1,2.7,1.4l0.4-0.8c-0.6-0.5-1.9-1.2-3.2-1.6
		C73.7,61.3,73.7,61.9,73.7,62"/>
	<path class="st1" d="M79,59c-0.1,0-0.1,0-0.1-0.1c-0.2-0.1-0.3-0.2-0.5-0.3c0.1,0,0.2-0.1,0.2-0.1c0.1-0.1,0.3-0.4,0.2-0.5
		c-0.1-0.1-0.4,0-0.5,0.1c0-0.2-0.1-0.4-0.2-0.4c-0.1,0-0.3,0.4-0.3,0.5c0,0.1,0,0.1,0,0.2C76.9,58,76,57.7,75,57.5
		c0.1,0,0.1-0.1,0.1-0.2c0-0.1,0.1-0.6,0-0.6c-0.1,0-0.3,0.2-0.4,0.4c-0.1-0.2-0.3-0.4-0.4-0.4c-0.1,0-0.1,0.5,0,0.6c0,0,0,0,0,0.1
		c-0.2,0-0.4-0.1-0.6-0.1v0.9c1.8,0.3,3.4,0.9,4.8,1.7L79,59z"/>
	<path class="st1" d="M80.2,74c-0.2-0.2-0.3-0.4-0.5-0.5c-0.5-0.3-1.1-0.5-1.6-0.4c0,0-0.9,0-1.4-0.2c-0.6-0.2-1.1-0.7-1.5-1.2
		c-0.3-0.3-0.4-0.7-0.8-1c-0.2-0.1-0.4-0.3-0.6-0.3V71c0.1,0,0.1,0.1,0.2,0.1c0.2,0.1,0.7,0.9,1,1.2c0,0,0.8,0.8,1.3,1
		c0.6,0.2,1.7,0.5,2,0.4c0,0,0,0,0,0l0,0c0,0,0.1,0,0.1,0v0c0.4,0,0.7,0,1.1,0.2c0.1,0,0.2,0.2,0.4,0.4c0,0,0,0,0,0l0.3,0.5
		c0,0,0.1,0,0.1-0.1c0.2-0.1,0.4-0.2,0.5-0.3c0,0-0.1-0.1-0.1-0.1C80.4,74.2,80.3,74.1,80.2,74"/>
	<path class="st1" d="M85.9,48.5c0-0.2-0.2-0.4-0.4-0.4c-0.2,0-0.4,0.2-0.4,0.4c0,0.2,0.2,0.4,0.4,0.4C85.7,49,85.9,48.8,85.9,48.5"
		/>
	<path class="st1" d="M84.2,48.4c0.2,0,0.4-0.2,0.4-0.4c0-0.2-0.2-0.4-0.4-0.4c-0.2,0-0.4,0.2-0.4,0.4
		C83.7,48.2,83.9,48.4,84.2,48.4"/>
	<rect x="90.3" y="47.1" transform="matrix(0.4786 -0.8781 0.8781 0.4786 6.0507 105.0909)" class="st1" width="2.5" height="0.6"/>
	<rect x="91.6" y="47.9" transform="matrix(0.4787 -0.878 0.878 0.4787 6.0968 106.6632)" class="st1" width="2.5" height="0.6"/>
	<rect x="93" y="48.6" transform="matrix(0.4786 -0.8781 0.8781 0.4786 6.168 108.2724)" class="st1" width="2.5" height="0.6"/>
	<path class="st1" d="M100.8,54.3c-0.3-0.1-0.7-0.1-1-0.1c-0.6,0.1-1.2,0.3-1.8,0.4c-0.4,0.1-0.8,0.2-1.2,0.3
		c-0.4,0.1-0.7,0.2-1.1,0.2c-0.1,0-0.2,0-0.3,0c0,0-0.1,0-0.1,0c0,0,0,0,0,0c0,0,0,0,0,0c-0.2,0-0.4-0.1-0.6-0.1
		c-0.4-0.1-0.7-0.2-1-0.4c-0.3-0.2-0.7-0.4-1-0.6c-0.3-0.2-0.6-0.5-1-0.6c-0.4-0.2-0.8-0.3-1.3-0.3c-0.4,0-0.9,0.1-1.3,0.2
		c-0.3,0.1-0.7,0.2-1,0.3c-0.1,0-0.3,0.1-0.4,0.1c-0.1,0-0.1,0-0.2,0c0,0-0.1,0-0.1,0c0,0,0,0,0,0c0,0,0,0,0,0c-0.3,0-0.5,0-0.8,0
		c-0.1,0-0.3,0-0.4,0c0,0,0,0,0,0c0,0,0,0,0,0c0,0-0.1,0-0.1,0c-0.1,0-0.1,0-0.2,0c-0.3-0.1-0.6-0.2-0.9-0.3c0,0-0.1,0-0.1,0
		c0,0-0.1,0-0.1,0c-0.1,0-0.2-0.1-0.3-0.1c-0.2-0.1-0.3-0.2-0.5-0.3c-0.1-0.1-0.2-0.1-0.3-0.2c0,0,0,0,0,0c-0.1,0-0.1-0.1-0.2-0.1
		c-1.4-1.1-3-2-4.7-2.5c-1.3-0.4-2.7-0.7-4.2-0.8c-0.3,0-0.6,0-0.8,0v0.8c0.2,0,0.4,0,0.6,0c0.3,0,0.6,0,0.8,0.1
		c0.2,0,0.3,0,0.5,0.1l0.1,0c-0.1,0,0,0,0,0c0.1,0,0.2,0,0.3,0c0.7,0.1,1.4,0.3,2.1,0.5c0.4,0.1,0.8,0.2,1.1,0.4
		c0.1,0,0.2,0.1,0.3,0.1c0,0,0.1,0,0.1,0c0,0,0,0,0,0c0,0,0.1,0,0.1,0c0.2,0.1,0.4,0.2,0.6,0.3c0.4,0.2,0.9,0.5,1.3,0.7
		c0.4,0.3,0.8,0.6,1.2,0.9c0,0,0,0,0,0c0,0,0,0,0,0c-0.3,0.3-0.6,0.6-0.9,0.9c-0.3-0.2-0.7-0.4-1-0.5c0.1,0,0.2,0,0.3-0.1
		c0.1-0.1,0.4-0.4,0.2-0.5c-0.1-0.1-0.3,0-0.5,0.1c0-0.2-0.1-0.4-0.2-0.4c-0.1,0-0.3,0.4-0.3,0.5c0,0.1,0,0.2,0,0.2
		c-0.9-0.4-1.9-0.7-2.9-0.9c0,0,0.1-0.1,0.1-0.1c0.1-0.1,0.3-0.5,0.1-0.6c-0.1-0.1-0.3,0.1-0.5,0.2c-0.1-0.2-0.1-0.3-0.3-0.4
		c-0.1,0-0.2,0.4-0.2,0.5c0,0.1,0,0.1,0,0.2c-0.6-0.1-1.3-0.2-2-0.3c0,0,0-0.1,0.1-0.1c0-0.1,0.1-0.6,0-0.6c-0.1,0-0.3,0.2-0.4,0.4
		c-0.1-0.2-0.3-0.4-0.4-0.4c-0.1,0-0.1,0.5,0,0.6c0,0,0,0.1,0,0.1c0,0-0.1,0-0.1,0c-0.1,0-0.3,0-0.4,0l0,1.1l0.1,0
		c0.1,0,0.2,0,0.3,0c2.6,0.1,5.1,0.7,7.2,1.8c-0.2,0.3-0.4,0.7-0.6,1c-0.4-0.2-0.7-0.4-1.1-0.5c0,0,0.1-0.1,0.1-0.1
		c0.1-0.1,0.4-0.4,0.2-0.5c-0.1-0.1-0.3,0-0.5,0.1c0-0.2-0.1-0.4-0.2-0.4c-0.1,0-0.3,0.4-0.3,0.5c0,0,0,0.1,0,0.1
		c-0.6-0.2-1.2-0.4-1.9-0.5c0,0,0,0,0,0c0.1-0.1,0.3-0.5,0.1-0.6c-0.1-0.1-0.3,0.1-0.5,0.2c-0.1-0.2-0.1-0.3-0.3-0.4
		c-0.1,0-0.2,0.4-0.2,0.5c0,0,0,0,0,0c-0.4-0.1-0.9-0.1-1.3-0.2c0,0,0-0.1,0.1-0.1c0-0.1,0.1-0.6,0-0.6c-0.1,0-0.3,0.2-0.4,0.4
		c-0.1-0.2-0.3-0.4-0.4-0.4c-0.1,0-0.1,0.5,0,0.6c0,0,0,0.1,0,0.1c-0.1,0-0.3,0-0.3,0l0,1c0.1,0,0.3,0,0.3,0c3.8,0.1,7.3,1.7,9.2,4
		c-1.1-0.5-2.6-1-2.6-1l-0.4-0.1l-3.7,6.5c-0.6-0.5-1.5-1-2.9-1.3c0,0,0,0,0,0.1v0.5c0,0.1,0,0.2,0,0.2c1.1,0.3,1.9,0.7,2.6,1.4l0,0
		l0,0c0,0,0,0,0,0l0,0l0.5,0.2c0,0,2,0.8,2.6,1.1c0.6,0.3,2.2,1.4,2.2,1.5l0.4,0.3l3.9-7.4l-0.3-0.2c0,0,0,0-0.3-0.3l-0.1-0.2
		c-0.5-1-1.2-2-2.2-2.8c0.4-0.6,0.9-1.2,1.4-1.7l0-1.2c-0.9,0.7-1.6,1.4-2.2,2.3c-0.2-0.2-0.5-0.3-0.7-0.5c0,0,0.1-0.1,0.1-0.1
		c0.1-0.2,0.4-0.8,0.5-0.9c0.2-0.3,0.5-0.6,0.8-0.9c0.3-0.3,0.6-0.6,0.9-0.8c0.9,0.5,1.9,0.8,2.9,0.8c0.6,0,1.2-0.1,1.7-0.3
		c0.4-0.1,0.8-0.2,1.2-0.3c0,0,0.1,0,0.1,0c0,0,0,0,0,0c0,0,0.1,0,0.1,0c0.1,0,0.2,0,0.3,0c0.2,0,0.3,0,0.5,0.1
		c0.8,0.2,1.3,0.7,2,1.1c0.7,0.4,1.4,0.7,2.2,0.9c0.4,0.1,0.8,0.1,1.2,0.1c0.4,0,0.8-0.2,1.3-0.3c0.4-0.1,0.7-0.2,1.1-0.3
		c0.3-0.1,0.6-0.2,0.8-0.3c0.2,0,0.3-0.1,0.5-0.1c0,0,0,0,0,0h0c0,0,0,0,0.1,0c0,0,0.1,0,0.1,0c0.1,0,0.2,0,0.3,0c0,0,0.1,0,0.1,0
		c0,0,0,0,0,0c0,0,0,0,0,0c0.1,0,0.2,0,0.2,0.1c0,0,0,0,0,0c0,0,0,0,0,0c0,0,0.1,0,0.1,0.1c0.1,0,0.1,0.1,0.2,0.1
		c0,0,0.1,0.1,0.1,0.1c0.5,0,0.9,0,1.4-0.1c-0.3-0.2-0.5-0.3-0.8-0.5C101.3,54.5,101.1,54.4,100.8,54.3 M80.8,53.4
		C80.8,53.4,80.8,53.4,80.8,53.4C80.8,53.4,80.9,53.4,80.8,53.4C80.8,53.4,80.8,53.4,80.8,53.4 M83.9,60.3c0.5,0.3,0.9,0.7,1.2,0.9
		l-3.3,6.3c-0.5-0.4-1.7-1.2-2.2-1.4c-0.4-0.2-1.9-0.8-2.5-1.1l3.5-6.2c0.5,0.2,1.6,0.6,2.4,0.9C83.3,59.9,83.6,60.1,83.9,60.3"/>
	<path class="st1" d="M107,53.3c-0.3,0.1-0.6,0.1-0.8,0.2c-0.2,0.1-0.4,0.1-0.6,0.1h0c0,0,0,0-0.1,0c0,0-0.1,0-0.1,0
		c-0.1,0-0.2,0-0.3,0c0.1,0-0.1,0-0.1,0c-0.1,0-0.1,0-0.2,0c-0.2,0-0.3-0.1-0.5-0.1c-0.3-0.1-0.5-0.2-0.8-0.2
		c-0.1,0-0.3-0.1-0.4-0.2c0,0-0.1,0-0.1,0c0,0,0,0,0,0c0,0,0,0,0,0c-0.1,0-0.1-0.1-0.2-0.1c-0.1-0.1-0.2-0.1-0.4-0.2l0.5-7.4
		c-0.2,0.1-0.4,0.1-0.7,0.1c0,0-0.1,0-0.1,0l-0.2,3.4l-0.7-0.2l0.8-3.2c-0.3,0-0.5-0.1-0.8-0.2l-0.8,3.2l-0.7-0.2l1.4-3.1
		c-0.3-0.2-0.6-0.4-0.6-0.5l-3.6,7.9c-0.1,0.1-0.1,0.3-0.2,0.4c0,0,0,0,0,0c-0.1,0-0.2,0-0.3,0c-0.2,0-0.3,0-0.5,0
		c-0.1,0-0.1,0-0.2,0c-0.1,0-0.2,0-0.3,0c-0.3-0.1-0.7-0.2-1-0.3c0,0,0,0,0,0c0,0,0,0,0,0c0,0-0.1,0-0.1,0c-0.1,0-0.2-0.1-0.2-0.1
		c-0.2-0.1-0.3-0.2-0.5-0.3c-0.3-0.2-0.6-0.4-0.9-0.6c-0.6-0.4-1.3-0.7-2-0.8c-0.7,0-1.4,0.2-2.1,0.4c-0.2,0.1-0.5,0.1-0.7,0.2
		c-0.1,0-0.1,0-0.2,0c0,0,0,0,0,0c0,0,0,0,0,0c0,0-0.1,0-0.1,0c-0.1,0-0.2,0-0.4,0c-0.3,0-0.5,0-0.8,0c0,0,0,0,0,0c0,0,0,0,0,0
		c0,0-0.1,0-0.1,0c0,0,0,0,0,0c0.9-1.1,1.5-2.4,1.6-3.8c0,0,0-0.3,0-0.3c0-0.1,0-0.3,0-0.4h0v-0.3c-0.2,0-0.5,0-0.7,0
		c-0.4,0-0.9-0.2-1.4-0.4l10.7-5.8l-0.9,1.7c-0.1,0.2,0,0.3,0.1,0.4l0.1,0.1c0.4,0.2,0.5,0.7,0.3,1.1c-0.2,0.4-0.7,0.5-1.1,0.3
		c-0.4-0.2-0.5-0.7-0.3-1.1l-0.5-0.3c-0.2,0.4-0.2,0.8-0.1,1.2l-3,0.5l-0.2-0.1c-0.2-0.1-0.3,0-0.4,0.1l-2.1,3.8
		c-0.1,0.2,0,0.3,0.1,0.4h0l5.9,3.2c0.2,0.1,0.3,0,0.4-0.1v0l2.1-3.8c0.1-0.2,0-0.3-0.1-0.4l-0.5-0.3l-0.8-2.5
		c0.8,0,1.4-0.7,1.4-1.4c0-0.4-0.2-0.9-0.6-1.1l1.3-2.3l0,0l-0.4-1.3l-13.7,4.9l0,0l0.5-0.9c-0.2-0.1-0.3-0.1-0.3-0.1
		c-0.2-0.1-0.4-0.3-0.6-0.4c-0.6-0.4-1.2-0.7-1.9-1l0.5-1l0.5-0.9l0.6-1l-3.4-0.2l1.9,1.7l-0.6,1.2c-1.7-0.6-3.5-1-5.4-1
		c0,0,0,0,0,0c-0.4,0-0.8,0-1.1,0l-0.6,1.1l0,0v2.4c0.7,0,1.4,0,2,0c3.1,0.2,6,1.4,8,3.2c0.1,0.1,0.4,0.3,0.4,0.3
		c0.7,0.5,1.8,0.9,2.9,1.1c-0.2,1.7-0.6,2.4-1.7,3.5c-0.1-0.1-0.3-0.1-0.5-0.2c-0.4-0.2-0.7-0.4-1-0.6c-1.4-1.1-3-2-4.7-2.5
		c-1.3-0.4-2.7-0.7-4.2-0.8c-0.4,0-0.9,0-1.3,0v0.8c0.4,0,0.7,0,1.1,0c0.3,0,0.6,0,0.8,0.1c0.2,0,0.3,0,0.5,0.1c0,0,0.1,0,0.1,0
		c-0.1,0,0,0,0,0c0.1,0,0.2,0,0.3,0c0.7,0.1,1.4,0.3,2.1,0.5c0.4,0.1,0.8,0.2,1.1,0.4c0.1,0,0.2,0.1,0.3,0.1c0,0,0.1,0,0.1,0
		c0,0,0,0,0,0c0,0,0.1,0,0.1,0c0.2,0.1,0.4,0.2,0.6,0.3c0.4,0.2,0.9,0.5,1.3,0.7c0.5,0.3,0.8,0.6,1.2,0.9c0,0,0,0,0,0
		c0,0,0,0,0.1,0.1c1,0.7,2.2,1.2,3.4,1.3c0.5,0,1,0,1.5-0.1c0.3,0,0.5-0.1,0.8-0.2c0.4-0.1,0.7-0.2,1.1-0.3c0.6-0.1,1.3,0,1.8,0.4
		c0.3,0.2,0.6,0.4,0.8,0.6c0.3,0.2,0.6,0.4,0.9,0.5c0.7,0.3,1.3,0.5,2.1,0.6c0.6,0.1,1.2-0.1,1.8-0.2c0.1,0,0.2-0.1,0.4-0.1
		c0.3-0.1,0.6-0.2,0.9-0.3c0.1,0,0.1,0,0.2-0.1c0,0,0.1,0,0.1,0c0.1,0,0.3-0.1,0.4-0.1c0.1,0,0.1,0,0.2,0c0,0,0,0,0.1,0
		c0,0,0.1,0,0.1,0c0,0,0.1,0,0.1,0c0.1,0,0.3,0,0.4,0c0.1,0,0.2,0,0.3,0c0,0,0,0,0,0c0,0,0.1,0,0.1,0c0.2,0,0.4,0.1,0.6,0.2
		c0,0,0,0,0.1,0c0.1,0.1,0.3,0.1,0.4,0.2c0.1,0,0.1,0.1,0.2,0.1c0,0,0,0,0.1,0c0,0,0.1,0,0.1,0l0,0c0.2,0.1,0.5,0.2,0.7,0.3
		c0.5,0.2,1,0.4,1.6,0.5c0.5,0.1,0.9,0.1,1.4,0c0.2-0.1,0.4-0.1,0.7-0.2c0.1,0,0.3-0.1,0.4-0.1c0,0,0.1,0,0.1,0c0,0,0.1,0,0.1,0
		c0.1,0,0.1,0,0.2,0c0,0,0,0,0.1,0c0,0,0.1,0,0.1,0c0.1,0,0.3,0.1,0.4,0.1c0.3-0.1,0.7-0.2,1-0.3c-0.3-0.3-0.8-0.5-1.3-0.6
		C107.5,53.2,107.2,53.2,107,53.3 M94.8,44.7l0.8,2.2L92.3,45L94.8,44.7z M96.4,48l-1.8,3.3l-5.4-2.9l1.8-3.3L96.4,48z M96.3,39.9
		l-4,2.2l-1.2-0.3L96.3,39.9z M90,42.3l1.2,0.3l-1.6,0.9L90,42.3z M89.2,42.4l-0.4,1.4L87,43.2L89.2,42.4z M82.2,44l-0.1,0
		c-1.9-1-4.2-1.7-6.2-1.8c-0.6,0-1.2-0.1-1.8,0l0.8-1.5c0.2,0,0.3,0,0.5,0c2.8,0,5.4,0.8,7.5,2.2L82.2,44z M84.7,45.8
		c-0.3-0.1-0.4-0.3-0.4-0.3c-0.4-0.3-0.8-0.6-1.2-0.9l0-0.1l2.2-0.8L84.7,45.8z M86.1,43.7l1.9,0.6l-2.5,1.4L86.1,43.7z M99.5,52.4
		c-0.3,0.1-0.7,0.2-1,0.2c-0.3,0.1-0.5,0.2-0.8,0.2l1.7-3.8l0.8,0.2L99.5,52.4z M101.7,52.5c-0.4-0.1-0.9-0.2-1.4-0.2l0.7-2.8
		l0.8,0.2L101.7,52.5z"/>
	<path class="st1" d="M115.1,33.2C115.1,33.2,115.1,33.2,115.1,33.2c-0.1-0.3-0.2-0.5-0.3-0.7c0.1-0.1,0.1-0.2,0.1-0.3
		c0-0.1-0.1-0.2-0.3-0.3c0,0-0.1,0-0.1-0.1c0-0.1,0-0.1-0.1-0.2c-0.2-0.2-0.3-0.4-0.5-0.5c-0.1-0.1-0.2-0.1-0.3,0
		c-0.1,0-0.1,0.1-0.1,0.2c0,0.1,0,0.1,0.1,0.2l0.1,0.1c0.1,0.1,0.2,0.2,0.3,0.3c0,0,0,0,0,0.1c-0.1,0.1-0.1,0.1-0.1,0.2
		c0,0.1,0,0.2,0.1,0.2c0.1,0.1,0.1,0.1,0.2,0.1c0.1,0.2,0.2,0.4,0.2,0.6c0,0,0.1,0.1,0.1,0.1c0.1,0,0.1,0,0.2,0l0.2,0L115.1,33.2z"
		/>
	<path class="st1" d="M113.5,35.3c0.1,0.1,0.3,0.2,0.4,0.2c0-0.1,0-0.1,0-0.2c0.1-0.4,0.3-0.8,0.6-1.1c0,0,0,0,0-0.1
		c0,0,0.1,0,0.1,0l1.7,0.1c0,0,0.1,0,0.1,0c0,0,0,0,0,0.1c0.2,0.3,0.4,0.7,0.5,1.2c0,0.2,0,0.5,0,0.7l0,0.2c0.3,0,0.5-0.1,0.7-0.1
		l0-0.1c0-0.3,0-0.6,0-0.7c-0.1-0.5-0.3-1-0.6-1.4c-0.1-0.1-0.1-0.2-0.3-0.3c-0.2-0.1-0.3-0.1-0.4-0.1l-1.7-0.1
		c-0.1,0-0.3,0-0.4,0.1c-0.1,0.1-0.2,0.2-0.3,0.2c-0.3,0.4-0.6,0.8-0.7,1.3c0,0,0,0,0,0C113.4,35.2,113.4,35.2,113.5,35.3"/>
	<polygon class="st1" points="6.7,30.5 8.3,30.5 8.3,36.3 7.1,36.3 7.1,32.2 5.7,35.5 4.6,35.5 3.2,32.3 3.2,36.3 2,36.3 2,30.5 
		3.5,30.5 5.2,34.2 	"/>
	<rect x="9.4" y="30.5" class="st1" width="1.3" height="5.8"/>
	<polygon class="st1" points="15.5,30.5 16.7,30.5 16.7,36.3 15.4,36.3 12.9,32.4 12.9,36.3 11.7,36.3 11.7,30.5 13,30.5 15.5,34.4 
			"/>
	<rect x="17.8" y="30.5" class="st1" width="1.3" height="5.8"/>
	<path class="st1" d="M20.7,36.3c-0.3,0-0.5-0.1-0.8-0.2v-1c0.2,0.1,0.5,0.1,0.8,0.2s0.6,0.1,0.8,0.1c0.4,0,0.6-0.1,0.8-0.2
		c0.2-0.1,0.3-0.3,0.3-0.5c0-0.1,0-0.2-0.1-0.3c-0.1-0.1-0.1-0.2-0.3-0.2C22.2,34.1,22,34,21.8,34l-0.4-0.1
		c-0.5-0.1-0.9-0.3-1.2-0.6c-0.3-0.3-0.4-0.6-0.4-1.1c0-0.6,0.2-1,0.6-1.3c0.4-0.3,1-0.5,1.8-0.5c0.3,0,0.5,0,0.7,0
		c0.2,0,0.5,0.1,0.6,0.1v1c-0.2-0.1-0.4-0.1-0.6-0.1c-0.2,0-0.5,0-0.7,0c-0.4,0-0.7,0.1-0.9,0.2s-0.3,0.3-0.3,0.5
		c0,0.1,0,0.2,0.1,0.3c0,0.1,0.1,0.1,0.2,0.2c0.1,0.1,0.3,0.1,0.4,0.2l0.4,0.1c0.6,0.1,1,0.3,1.2,0.6c0.3,0.3,0.4,0.6,0.4,1.1
		c0,0.4-0.1,0.7-0.3,1c-0.2,0.3-0.5,0.5-0.8,0.6c-0.3,0.1-0.8,0.2-1.3,0.2C21.3,36.4,21,36.4,20.7,36.3"/>
	<polygon class="st1" points="25.7,36.3 25.7,31.6 23.9,31.6 23.9,30.5 28.9,30.5 28.9,31.6 27,31.6 27,36.3 	"/>
	<polygon class="st1" points="30.7,35.3 33.6,35.3 33.6,36.3 29.4,36.3 29.4,30.5 33.5,30.5 33.5,31.5 30.7,31.5 30.7,32.8 
		33.1,32.8 33.1,33.8 30.7,33.8 	"/>
	<path class="st1" d="M37.8,36.3l-1.5-2.1h-0.1c-0.2,0-0.4,0-0.6,0v2.2h-1.3v-5.7c0.3-0.1,0.6-0.1,0.9-0.1c0.3,0,0.6-0.1,0.9-0.1
		c0.8,0,1.5,0.2,1.9,0.5c0.4,0.3,0.6,0.8,0.6,1.4c0,0.4-0.1,0.8-0.3,1c-0.2,0.3-0.5,0.5-0.9,0.6l1.7,2.3H37.8z M35.6,33.2
		c0.2,0,0.4,0,0.6,0c0.4,0,0.7-0.1,0.9-0.2c0.2-0.1,0.3-0.4,0.3-0.7c0-0.3-0.1-0.6-0.3-0.7c-0.2-0.1-0.5-0.2-0.9-0.2
		c-0.2,0-0.5,0-0.7,0.1V33.2z"/>
	<rect x="39.8" y="30.5" class="st1" width="1.3" height="5.8"/>
	<path class="st1" d="M43.2,36.1c-0.4-0.2-0.7-0.6-1-1c-0.2-0.4-0.3-1-0.3-1.7c0-0.7,0.1-1.2,0.3-1.7c0.2-0.4,0.5-0.8,1-1
		c0.4-0.2,0.9-0.3,1.5-0.3c0.6,0,1.1,0.1,1.5,0.3c0.4,0.2,0.7,0.6,1,1c0.2,0.4,0.3,1,0.3,1.7c0,0.7-0.1,1.2-0.3,1.7
		c-0.2,0.4-0.5,0.8-1,1c-0.4,0.2-0.9,0.3-1.5,0.3C44.1,36.4,43.6,36.3,43.2,36.1 M45.7,34.9c0.2-0.3,0.4-0.8,0.4-1.5
		c0-0.7-0.1-1.2-0.4-1.5c-0.2-0.3-0.6-0.5-1.1-0.5c-0.5,0-0.8,0.2-1.1,0.5c-0.2,0.3-0.4,0.8-0.4,1.5c0,0.7,0.1,1.2,0.4,1.5
		c0.2,0.3,0.6,0.5,1.1,0.5C45.1,35.4,45.5,35.2,45.7,34.9"/>
	<path class="st1" d="M50.3,36.3v-5.7c0.3-0.1,0.6-0.1,0.9-0.1c0.3,0,0.6-0.1,1-0.1c1.1,0,1.9,0.2,2.4,0.7c0.5,0.5,0.8,1.2,0.8,2.2
		c0,0.7-0.1,1.3-0.4,1.7c-0.3,0.4-0.6,0.8-1.1,1c-0.5,0.2-1.2,0.3-1.9,0.3C51.3,36.4,50.8,36.3,50.3,36.3 M53.2,35.1
		c0.3-0.1,0.5-0.3,0.6-0.6c0.1-0.3,0.2-0.7,0.2-1.1c0-0.5-0.1-0.8-0.2-1.1c-0.1-0.3-0.3-0.5-0.6-0.6c-0.3-0.1-0.6-0.2-1-0.2
		c-0.2,0-0.4,0-0.7,0.1v3.8c0.2,0,0.4,0,0.6,0C52.6,35.3,52.9,35.3,53.2,35.1"/>
	<polygon class="st1" points="57.4,35.3 60.3,35.3 60.3,36.3 56.2,36.3 56.2,30.5 60.3,30.5 60.3,31.5 57.4,31.5 57.4,32.8 
		59.9,32.8 59.9,33.8 57.4,33.8 	"/>
	<path class="st1" d="M15.7,45.6c-0.3,0-0.5-0.1-0.8-0.2v-1c0.2,0.1,0.5,0.1,0.8,0.2c0.3,0,0.6,0.1,0.8,0.1c0.4,0,0.6-0.1,0.8-0.2
		c0.2-0.1,0.3-0.3,0.3-0.5c0-0.1,0-0.2-0.1-0.3c-0.1-0.1-0.1-0.2-0.3-0.2c-0.1-0.1-0.3-0.1-0.5-0.2l-0.4-0.1
		c-0.5-0.1-0.9-0.3-1.2-0.6c-0.3-0.3-0.4-0.6-0.4-1.1c0-0.6,0.2-1,0.6-1.3c0.4-0.3,1-0.5,1.8-0.5c0.3,0,0.5,0,0.7,0
		c0.2,0,0.5,0.1,0.6,0.1v1c-0.2-0.1-0.4-0.1-0.6-0.1c-0.2,0-0.5,0-0.7,0c-0.4,0-0.7,0.1-0.9,0.2S16,41.2,16,41.4
		c0,0.1,0,0.2,0.1,0.3c0,0.1,0.1,0.1,0.2,0.2c0.1,0.1,0.3,0.1,0.4,0.2l0.4,0.1c0.6,0.1,1,0.3,1.2,0.6c0.3,0.3,0.4,0.6,0.4,1.1
		c0,0.4-0.1,0.7-0.3,1c-0.2,0.3-0.5,0.5-0.8,0.6c-0.3,0.1-0.8,0.2-1.3,0.2C16.2,45.7,16,45.6,15.7,45.6"/>
	<polygon class="st1" points="20.9,44.6 23.7,44.6 23.7,45.6 19.6,45.6 19.6,39.8 23.7,39.8 23.7,40.8 20.9,40.8 20.9,42.1 
		23.3,42.1 23.3,43.1 20.9,43.1 	"/>
	<path class="st1" d="M29,42.8v2.8c-0.5,0.1-1,0.1-1.5,0.1c-1.1,0-1.9-0.2-2.5-0.7c-0.6-0.5-0.8-1.2-0.8-2.2c0-1,0.3-1.7,0.8-2.2
		c0.6-0.5,1.4-0.8,2.5-0.8c0.5,0,0.9,0,1.3,0.1v1.1c-0.4-0.1-0.8-0.1-1.2-0.1c-0.5,0-0.9,0.1-1.2,0.2c-0.3,0.1-0.5,0.3-0.7,0.6
		c-0.1,0.3-0.2,0.7-0.2,1.1c0,0.7,0.2,1.1,0.5,1.4c0.3,0.3,0.8,0.5,1.4,0.5c0.1,0,0.2,0,0.4,0v-1.8H29z"/>
	<path class="st1" d="M30.6,45.1c-0.4-0.4-0.6-1-0.6-1.9v-3.4h1.3v3.5c0,0.5,0.1,0.8,0.3,1c0.2,0.2,0.5,0.3,0.9,0.3
		c0.4,0,0.7-0.1,0.9-0.3c0.2-0.2,0.3-0.5,0.3-1v-3.5h1.3v3.4c0,0.8-0.2,1.5-0.6,1.9c-0.4,0.4-1,0.6-1.8,0.6
		C31.6,45.7,31,45.5,30.6,45.1"/>
	<path class="st1" d="M39.4,45.6l-1.5-2.1h-0.1c-0.2,0-0.4,0-0.6,0v2.2h-1.3v-5.7c0.3-0.1,0.6-0.1,0.9-0.1c0.3,0,0.6-0.1,0.9-0.1
		c0.8,0,1.5,0.2,1.9,0.5c0.4,0.3,0.6,0.8,0.6,1.4c0,0.4-0.1,0.8-0.3,1c-0.2,0.3-0.5,0.5-0.9,0.6l1.7,2.3H39.4z M37.2,42.5
		c0.2,0,0.4,0,0.6,0c0.4,0,0.7-0.1,0.9-0.2c0.2-0.1,0.3-0.4,0.3-0.7c0-0.3-0.1-0.6-0.3-0.7c-0.2-0.1-0.5-0.2-0.9-0.2
		c-0.2,0-0.5,0-0.7,0.1V42.5z"/>
	<rect x="41.3" y="39.8" class="st1" width="1.3" height="5.8"/>
	<path class="st1" d="M43.7,45.6v-5.7c0.3-0.1,0.6-0.1,0.9-0.1c0.3,0,0.6-0.1,1-0.1c1.1,0,1.9,0.2,2.4,0.7c0.5,0.5,0.8,1.2,0.8,2.2
		c0,0.7-0.1,1.3-0.4,1.7c-0.3,0.4-0.6,0.8-1.1,1c-0.5,0.2-1.2,0.3-1.9,0.3C44.7,45.6,44.2,45.6,43.7,45.6 M46.6,44.4
		c0.3-0.1,0.5-0.3,0.6-0.6c0.1-0.3,0.2-0.7,0.2-1.1c0-0.5-0.1-0.8-0.2-1.1c-0.1-0.3-0.3-0.5-0.6-0.6c-0.3-0.1-0.6-0.2-1-0.2
		c-0.2,0-0.4,0-0.7,0.1v3.8c0.2,0,0.4,0,0.6,0C46,44.6,46.4,44.5,46.6,44.4"/>
	<path class="st1" d="M53.4,45.6L52.9,44h-2.2l-0.5,1.6H49l1.9-5.8h1.9l1.9,5.8H53.4z M51,43h1.5l-0.8-2.5L51,43z"/>
	<path class="st1" d="M55.2,45.6v-5.7c0.3-0.1,0.6-0.1,0.9-0.1c0.3,0,0.6-0.1,1-0.1c1.1,0,1.9,0.2,2.4,0.7c0.5,0.5,0.8,1.2,0.8,2.2
		c0,0.7-0.1,1.3-0.4,1.7c-0.3,0.4-0.6,0.8-1.1,1c-0.5,0.2-1.2,0.3-1.9,0.3C56.2,45.6,55.7,45.6,55.2,45.6 M58.1,44.4
		c0.3-0.1,0.5-0.3,0.6-0.6c0.1-0.3,0.2-0.7,0.2-1.1c0-0.5-0.1-0.8-0.2-1.1c-0.1-0.3-0.3-0.5-0.6-0.6c-0.3-0.1-0.6-0.2-1-0.2
		c-0.2,0-0.4,0-0.7,0.1v3.8c0.2,0,0.4,0,0.6,0C57.5,44.6,57.9,44.5,58.1,44.4"/>
</g>
</svg>
